<svg width="316" height="220" viewBox="0 0 316 220" fill="none" xmlns="http://www.w3.org/2000/svg">
<g filter="url(#filter0_d_87_5777)">
<g clip-path="url(#clip0_87_5777)">
<path d="M48 31.1001C48 23.3681 54.268 17.1001 62 17.1001H254C261.732 17.1001 268 23.3681 268 31.1001V188.9C268 196.632 261.732 202.9 254 202.9H62C54.268 202.9 48 196.632 48 188.9V31.1001Z" fill="white"/>
<mask id="path-2-inside-1_87_5777" fill="white">
<path d="M48 17.1001H268V47.9001H48V17.1001Z"/>
</mask>
<path d="M48 17.1001H268V47.9001H48V17.1001Z" fill="#F8FAFC"/>
<path d="M268 47.9001V47.1001H48V47.9001V48.7001H268V47.9001Z" fill="#E5E7EB" mask="url(#path-2-inside-1_87_5777)"/>
<path d="M60 32.1001C60 30.1671 61.567 28.6001 63.5 28.6001C65.433 28.6001 67 30.1671 67 32.1001C67 34.0331 65.433 35.6001 63.5 35.6001C61.567 35.6001 60 34.0331 60 32.1001Z" fill="#FF6467"/>
<path d="M73 32.1001C73 30.1671 74.567 28.6001 76.5 28.6001C78.433 28.6001 80 30.1671 80 32.1001C80 34.0331 78.433 35.6001 76.5 35.6001C74.567 35.6001 73 34.0331 73 32.1001Z" fill="#FFB900"/>
<path d="M86 32.1001C86 30.1671 87.567 28.6001 89.5 28.6001C91.433 28.6001 93 30.1671 93 32.1001C93 34.0331 91.433 35.6001 89.5 35.6001C87.567 35.6001 86 34.0331 86 32.1001Z" fill="#05DF72"/>
<path d="M107 32.1001C107 28.2341 110.134 25.1001 114 25.1001H249C252.866 25.1001 256 28.2341 256 32.1001C256 35.9661 252.866 39.1001 249 39.1001H114C110.134 39.1001 107 35.9661 107 32.1001Z" fill="#EEF2FF"/>
<path d="M115 32.1001C115 31.2717 115.672 30.6001 116.5 30.6001H161.5C162.328 30.6001 163 31.2717 163 32.1001C163 32.9285 162.328 33.6001 161.5 33.6001H116.5C115.672 33.6001 115 32.9285 115 32.1001Z" fill="#C7D2FE"/>
<path d="M60 63.9001C60 61.691 61.7909 59.9001 64 59.9001H80C82.2091 59.9001 84 61.691 84 63.9001V79.9001C84 82.1093 82.2091 83.9001 80 83.9001H64C61.7909 83.9001 60 82.1093 60 79.9001V63.9001Z" fill="#6366F1"/>
<path d="M152 71.9001C152 70.7956 152.895 69.9001 154 69.9001H182C183.105 69.9001 184 70.7956 184 71.9001C184 73.0047 183.105 73.9001 182 73.9001H154C152.895 73.9001 152 73.0047 152 71.9001Z" fill="#E5E7EB"/>
<path d="M192 71.9001C192 70.7956 192.895 69.9001 194 69.9001H222C223.105 69.9001 224 70.7956 224 71.9001C224 73.0047 223.105 73.9001 222 73.9001H194C192.895 73.9001 192 73.0047 192 71.9001Z" fill="#E5E7EB"/>
<path d="M232 71.9001C232 70.7956 232.895 69.9001 234 69.9001H254C255.105 69.9001 256 70.7956 256 71.9001C256 73.0047 255.105 73.9001 254 73.9001H234C232.895 73.9001 232 73.0047 232 71.9001Z" fill="#E5E7EB"/>
<path d="M60 101.9C60 96.3773 64.4772 91.9001 70 91.9001H246C251.523 91.9001 256 96.3773 256 101.9V150.9C256 156.423 251.523 160.9 246 160.9H70C64.4771 160.9 60 156.423 60 150.9V101.9Z" fill="url(#paint0_linear_87_5777)"/>
<path d="M72 106.4C72 105.019 73.1193 103.9 74.5 103.9H133.5C134.881 103.9 136 105.019 136 106.4C136 107.781 134.881 108.9 133.5 108.9H74.5C73.1193 108.9 72 107.781 72 106.4Z" fill="#6366F1"/>
<path d="M72 116.9C72 115.796 72.8954 114.9 74 114.9H166C167.105 114.9 168 115.796 168 116.9C168 118.005 167.105 118.9 166 118.9H74C72.8954 118.9 72 118.005 72 116.9Z" fill="#CBD5E1"/>
<path d="M72 124.9C72 123.796 72.8954 122.9 74 122.9H150C151.105 122.9 152 123.796 152 124.9C152 126.005 151.105 126.9 150 126.9H74C72.8954 126.9 72 126.005 72 124.9Z" fill="#CBD5E1"/>
<path d="M72 141.9C72 138.034 75.134 134.9 79 134.9H121C124.866 134.9 128 138.034 128 141.9C128 145.766 124.866 148.9 121 148.9H79C75.134 148.9 72 145.766 72 141.9Z" fill="#3B82F6"/>
<mask id="path-18-inside-2_87_5777" fill="white">
<path d="M60 176.9C60 172.482 63.5817 168.9 68 168.9H113.325C117.743 168.9 121.325 172.482 121.325 176.9V182.9C121.325 187.319 117.743 190.9 113.325 190.9H68C63.5817 190.9 60 187.319 60 182.9V176.9Z"/>
</mask>
<path d="M60 176.9C60 172.482 63.5817 168.9 68 168.9H113.325C117.743 168.9 121.325 172.482 121.325 176.9V182.9C121.325 187.319 117.743 190.9 113.325 190.9H68C63.5817 190.9 60 187.319 60 182.9V176.9Z" fill="#F1F5F9"/>
<path d="M68 168.9V169.7H113.325V168.9V168.1H68V168.9ZM121.325 176.9H120.525V182.9H121.325H122.125V176.9H121.325ZM113.325 190.9V190.1H68V190.9V191.7H113.325V190.9ZM60 182.9H60.8V176.9H60H59.2V182.9H60ZM68 190.9V190.1C64.0236 190.1 60.8 186.877 60.8 182.9H60H59.2C59.2 187.76 63.1399 191.7 68 191.7V190.9ZM121.325 182.9H120.525C120.525 186.877 117.301 190.1 113.325 190.1V190.9V191.7C118.185 191.7 122.125 187.76 122.125 182.9H121.325ZM113.325 168.9V169.7C117.301 169.7 120.525 172.924 120.525 176.9H121.325H122.125C122.125 172.04 118.185 168.1 113.325 168.1V168.9ZM68 168.9V168.1C63.1399 168.1 59.2 172.04 59.2 176.9H60H60.8C60.8 172.924 64.0235 169.7 68 169.7V168.9Z" fill="#E5E7EB" fill-opacity="0.5" mask="url(#path-18-inside-2_87_5777)"/>
<mask id="path-20-inside-3_87_5777" fill="white">
<path d="M127.325 176.9C127.325 172.482 130.907 168.9 135.325 168.9H180.663C185.081 168.9 188.663 172.482 188.663 176.9V182.9C188.663 187.319 185.081 190.9 180.663 190.9H135.325C130.907 190.9 127.325 187.319 127.325 182.9V176.9Z"/>
</mask>
<path d="M127.325 176.9C127.325 172.482 130.907 168.9 135.325 168.9H180.663C185.081 168.9 188.663 172.482 188.663 176.9V182.9C188.663 187.319 185.081 190.9 180.663 190.9H135.325C130.907 190.9 127.325 187.319 127.325 182.9V176.9Z" fill="#F1F5F9"/>
<path d="M135.325 168.9V169.7H180.663V168.9V168.1H135.325V168.9ZM188.663 176.9H187.863V182.9H188.663H189.463V176.9H188.663ZM180.663 190.9V190.1H135.325V190.9V191.7H180.663V190.9ZM127.325 182.9H128.125V176.9H127.325H126.525V182.9H127.325ZM135.325 190.9V190.1C131.349 190.1 128.125 186.877 128.125 182.9H127.325H126.525C126.525 187.76 130.465 191.7 135.325 191.7V190.9ZM188.663 182.9H187.863C187.863 186.877 184.639 190.1 180.663 190.1V190.9V191.7C185.523 191.7 189.463 187.76 189.463 182.9H188.663ZM180.663 168.9V169.7C184.639 169.7 187.863 172.924 187.863 176.9H188.663H189.463C189.463 172.04 185.523 168.1 180.663 168.1V168.9ZM135.325 168.9V168.1C130.465 168.1 126.525 172.04 126.525 176.9H127.325H128.125C128.125 172.924 131.349 169.7 135.325 169.7V168.9Z" fill="#E5E7EB" fill-opacity="0.5" mask="url(#path-20-inside-3_87_5777)"/>
<mask id="path-22-inside-4_87_5777" fill="white">
<path d="M194.662 176.9C194.662 172.482 198.244 168.9 202.662 168.9H248C252.418 168.9 256 172.482 256 176.9V182.9C256 187.319 252.418 190.9 248 190.9H202.662C198.244 190.9 194.662 187.319 194.662 182.9V176.9Z"/>
</mask>
<path d="M194.662 176.9C194.662 172.482 198.244 168.9 202.662 168.9H248C252.418 168.9 256 172.482 256 176.9V182.9C256 187.319 252.418 190.9 248 190.9H202.662C198.244 190.9 194.662 187.319 194.662 182.9V176.9Z" fill="#F1F5F9"/>
<path d="M202.662 168.9V169.7H248V168.9V168.1H202.662V168.9ZM256 176.9H255.2V182.9H256H256.8V176.9H256ZM248 190.9V190.1H202.662V190.9V191.7H248V190.9ZM194.662 182.9H195.462V176.9H194.662H193.862V182.9H194.662ZM202.662 190.9V190.1C198.686 190.1 195.462 186.877 195.462 182.9H194.662H193.862C193.862 187.76 197.802 191.7 202.662 191.7V190.9ZM256 182.9H255.2C255.2 186.877 251.976 190.1 248 190.1V190.9V191.7C252.86 191.7 256.8 187.76 256.8 182.9H256ZM248 168.9V169.7C251.976 169.7 255.2 172.924 255.2 176.9H256H256.8C256.8 172.04 252.86 168.1 248 168.1V168.9ZM202.662 168.9V168.1C197.802 168.1 193.862 172.04 193.862 176.9H194.662H195.462C195.462 172.924 198.686 169.7 202.662 169.7V168.9Z" fill="#E5E7EB" fill-opacity="0.5" mask="url(#path-22-inside-4_87_5777)"/>
</g>
</g>
<defs>
<filter id="filter0_d_87_5777" x="40" y="11.1001" width="236" height="201.8" filterUnits="userSpaceOnUse" color-interpolation-filters="sRGB">
<feFlood flood-opacity="0" result="BackgroundImageFix"/>
<feColorMatrix in="SourceAlpha" type="matrix" values="0 0 0 0 0 0 0 0 0 0 0 0 0 0 0 0 0 0 127 0" result="hardAlpha"/>
<feOffset dy="2"/>
<feGaussianBlur stdDeviation="4"/>
<feComposite in2="hardAlpha" operator="out"/>
<feColorMatrix type="matrix" values="0 0 0 0 0.109804 0 0 0 0 0.223529 0 0 0 0 0.556863 0 0 0 0.06 0"/>
<feBlend mode="normal" in2="BackgroundImageFix" result="effect1_dropShadow_87_5777"/>
<feBlend mode="normal" in="SourceGraphic" in2="effect1_dropShadow_87_5777" result="shape"/>
</filter>
<linearGradient id="paint0_linear_87_5777" x1="60" y1="126.4" x2="256" y2="126.4" gradientUnits="userSpaceOnUse">
<stop stop-color="#EEF2FF"/>
<stop offset="0.166667" stop-color="#EBF1FF"/>
<stop offset="0.333333" stop-color="#E8EFFF"/>
<stop offset="0.5" stop-color="#E5EEFF"/>
<stop offset="0.666667" stop-color="#E1EDFE"/>
<stop offset="0.833333" stop-color="#DEEBFE"/>
<stop offset="1" stop-color="#DBEAFE"/>
</linearGradient>
<clipPath id="clip0_87_5777">
<path d="M48 31.1001C48 23.3681 54.268 17.1001 62 17.1001H254C261.732 17.1001 268 23.3681 268 31.1001V188.9C268 196.632 261.732 202.9 254 202.9H62C54.268 202.9 48 196.632 48 188.9V31.1001Z" fill="white"/>
</clipPath>
</defs>
</svg>
