<svg width="1440" height="893" viewBox="0 0 1440 893" fill="none" xmlns="http://www.w3.org/2000/svg">
<g clip-path="url(#clip0_138_2)">
<rect width="1440" height="893" fill="white"/>
<path d="M166.621 45.2069C167.193 45.1812 167.766 45.1629 168.339 45.1523C175.255 45.0263 182.299 46.2037 188.96 47.9686C204.619 52.1186 218.71 59.573 230.418 70.7747C242.295 82.1376 250.121 95.5721 254.992 111.143C256.039 114.489 257.515 118.992 257.484 122.509C257.479 122.986 257.436 123.509 257.038 123.827C255.685 124.906 237.579 124.46 234.588 124.41C233.595 118.315 231.675 112.406 228.895 106.885C220.363 89.8544 205.807 77.7216 187.761 71.6866C179.515 68.8605 173.418 68.1534 164.689 68.5476C153.276 69.0162 142.522 73.994 134.816 82.3756C125.139 92.9006 121.73 106.355 124.013 120.367C124.223 121.654 124.67 123.06 124.73 124.347C122.632 125.352 106.122 124.397 103.301 124.195C102.358 121.939 101.639 116.823 101.448 114.267C100.259 98.3864 106.252 81.0372 116.731 69.0194C130.106 53.6822 146.558 46.653 166.621 45.2069Z" fill="#1EC4FF"/>
<path d="M53.8894 124.354C57.7801 124.167 65.687 123.931 69.4653 125.052C70.4765 125.352 71.7686 131.932 72.3909 133.716C78.7675 151.634 92.0194 166.318 109.253 174.56C122.399 180.928 139.161 183.228 153.145 178.466C169.76 172.81 181.715 155.603 181.996 138.269C182.063 134.093 181.527 128.968 180.1 125.057C181.534 125.031 183.039 124.747 184.467 124.748C189.785 124.76 195.166 124.376 200.473 124.659C202.5 124.766 203.097 127.483 203.491 129.116C205.158 136.02 204.323 143.315 203.259 150.249C201.167 160.802 196.55 170.7 189.796 179.105C179.499 191.871 163.617 200.867 147.213 202.618C123.259 205.39 99.1908 198.464 80.4332 183.402C62.0529 168.883 50.3204 147.628 47.877 124.421C49.9199 124.452 51.8468 124.408 53.8894 124.354Z" fill="#61ECFF"/>
<path d="M163.875 72.8001C176.235 72.3041 190.892 76.316 201.427 82.6755C215.558 91.2662 225.652 105.108 229.468 121.127C234.559 142.338 229.528 167.448 218.108 185.906C205.308 206.78 184.565 221.631 160.587 227.087C157.631 227.698 154.65 228.175 151.651 228.515C151.679 220.957 151.314 214.367 152.375 206.851C154.955 205.881 157.623 205.355 160.206 204.471C183.174 196.592 202.38 177.934 207.099 153.756C209.57 142.24 209.73 128.846 204.321 118.123C200.229 110.007 192.354 103.383 184.155 99.522C176.057 95.709 166.432 94.8968 157.609 96.3856C156.296 96.6074 154.159 97.0054 152.999 97.5781C153.234 94.1568 152.368 77.5231 153.511 75.8468C155.027 73.6214 161.341 73.1192 163.875 72.8001Z" fill="#1082FF"/>
<path d="M152.918 19.2344C153.086 19.2796 152.968 19.2377 153.222 19.4494C153.32 24.9296 153.199 30.4747 153.241 35.9572C153.255 37.8392 153.061 40.1876 153.137 41.9462C151.952 42.1469 150.785 42.4525 149.626 42.7672C130.81 47.9239 114.842 60.3294 105.264 77.2319C97.6429 90.546 93.9512 108.804 98.1038 123.723C100.932 134.145 107.843 143.004 117.292 148.323C127.933 154.234 140.226 155.327 151.906 152.048C152 156.582 152.344 161.096 152.276 165.657C152.233 168.524 152.494 170.47 151.893 173.313C146.825 176.547 137.816 176.475 131.961 175.846C100.417 173.761 74.823 145.51 73.6051 114.72C73.1519 103.262 75.1458 90.2754 79.3995 79.6814C87.5435 59.3995 103.451 40.0076 122.796 29.4041C131.052 24.8787 143.515 19.7281 152.918 19.2344Z" fill="#1082FF"/>
<path d="M356.621 284.207C357.193 284.181 357.766 284.163 358.339 284.152C365.255 284.026 372.299 285.204 378.96 286.969C394.619 291.119 408.71 298.573 420.418 309.775C432.295 321.138 440.121 334.572 444.992 350.143C446.039 353.489 447.515 357.992 447.484 361.509C447.479 361.986 447.436 362.509 447.038 362.827C445.685 363.906 427.579 363.46 424.588 363.41C423.595 357.315 421.675 351.406 418.895 345.885C410.363 328.854 395.807 316.722 377.761 310.687C369.515 307.861 363.418 307.153 354.689 307.548C343.276 308.016 332.522 312.994 324.816 321.376C315.139 331.901 311.73 345.355 314.013 359.367C314.223 360.654 314.67 362.06 314.73 363.347C312.632 364.352 296.122 363.397 293.301 363.195C292.358 360.939 291.639 355.823 291.448 353.267C290.259 337.386 296.252 320.037 306.731 308.019C320.106 292.682 336.558 285.653 356.621 284.207Z" fill="#1EC4FF"/>
<path d="M243.889 363.354C247.78 363.167 255.687 362.931 259.465 364.052C260.476 364.352 261.769 370.932 262.391 372.716C268.768 390.634 282.019 405.318 299.253 413.56C312.399 419.928 329.161 422.228 343.145 417.466C359.76 411.81 371.715 394.603 371.996 377.269C372.063 373.093 371.527 367.968 370.1 364.057C371.534 364.031 373.039 363.747 374.467 363.748C379.785 363.76 385.166 363.376 390.473 363.659C392.5 363.766 393.097 366.483 393.491 368.116C395.158 375.02 394.323 382.315 393.259 389.249C391.167 399.802 386.55 409.7 379.796 418.105C369.499 430.871 353.617 439.867 337.213 441.618C313.259 444.39 289.191 437.464 270.433 422.402C252.053 407.883 240.32 386.628 237.877 363.421C239.92 363.452 241.847 363.408 243.889 363.354Z" fill="#61ECFF"/>
<path d="M353.875 311.8C366.235 311.304 380.892 315.316 391.427 321.675C405.558 330.266 415.652 344.108 419.468 360.127C424.559 381.338 419.528 406.448 408.108 424.906C395.308 445.78 374.565 460.631 350.587 466.087C347.631 466.698 344.65 467.175 341.651 467.515C341.679 459.957 341.314 453.367 342.375 445.851C344.955 444.881 347.623 444.355 350.206 443.471C373.174 435.592 392.38 416.934 397.099 392.756C399.57 381.24 399.73 367.846 394.321 357.123C390.229 349.007 382.354 342.383 374.155 338.522C366.057 334.709 356.432 333.897 347.609 335.386C346.296 335.607 344.159 336.005 342.999 336.578C343.234 333.157 342.368 316.523 343.511 314.847C345.027 312.621 351.341 312.119 353.875 311.8Z" fill="#1082FF"/>
<path d="M342.918 258.234C343.086 258.28 342.968 258.238 343.222 258.449C343.32 263.93 343.199 269.475 343.241 274.957C343.255 276.839 343.061 279.188 343.137 280.946C341.952 281.147 340.785 281.452 339.626 281.767C320.81 286.924 304.842 299.329 295.264 316.232C287.643 329.546 283.951 347.804 288.104 362.723C290.932 373.145 297.843 382.004 307.292 387.323C317.933 393.234 330.226 394.327 341.906 391.048C342 395.582 342.344 400.096 342.276 404.657C342.233 407.524 342.494 409.47 341.893 412.313C336.825 415.547 327.816 415.475 321.961 414.846C290.417 412.761 264.823 384.51 263.605 353.72C263.152 342.262 265.146 329.275 269.4 318.681C277.544 298.4 293.451 279.008 312.796 268.404C321.052 263.879 333.515 258.728 342.918 258.234Z" fill="#1082FF"/>
<path d="M34.6209 289.207C35.1926 289.181 35.766 289.163 36.3393 289.152C43.2547 289.026 50.2993 290.204 56.9596 291.969C72.6187 296.119 86.7095 303.573 98.4183 314.775C110.295 326.138 118.121 339.572 122.992 355.143C124.039 358.489 125.515 362.992 125.484 366.509C125.479 366.986 125.436 367.509 125.038 367.827C123.685 368.906 105.579 368.46 102.588 368.41C101.595 362.315 99.6747 356.406 96.8953 350.885C88.3633 333.854 73.8073 321.722 55.7613 315.687C47.5151 312.861 41.4185 312.153 32.6894 312.548C21.2755 313.016 10.5219 317.994 2.81624 326.376C-6.86084 336.901 -10.2701 350.355 -7.98714 364.367C-7.77735 365.654 -7.33048 367.06 -7.2704 368.347C-9.36764 369.352 -25.8784 368.397 -28.6985 368.195C-29.642 365.939 -30.3607 360.823 -30.5521 358.267C-31.7406 342.386 -25.7483 325.037 -15.2687 313.019C-1.89439 297.682 14.5578 290.653 34.6209 289.207Z" fill="#1EC4FF"/>
<path d="M-78.1106 368.354C-74.2199 368.167 -66.313 367.931 -62.5347 369.052C-61.5235 369.352 -60.2314 375.932 -59.6091 377.716C-53.2325 395.634 -39.9806 410.318 -22.7472 418.56C-9.60146 424.928 7.16127 427.228 21.1447 422.466C37.7603 416.81 49.7146 399.603 49.9956 382.269C50.0634 378.093 49.5272 372.968 48.0996 369.057C49.5337 369.031 51.0389 368.747 52.4665 368.748C57.7847 368.76 63.1659 368.376 68.4728 368.659C70.4996 368.766 71.0972 371.483 71.4912 373.116C73.1579 380.02 72.323 387.315 71.2587 394.249C69.1673 404.802 64.55 414.7 57.796 423.105C47.4988 435.871 31.6169 444.867 15.2129 446.618C-8.74083 449.39 -32.8092 442.464 -51.5668 427.402C-69.9471 412.883 -81.6796 391.628 -84.123 368.421C-82.0801 368.452 -80.1532 368.408 -78.1106 368.354Z" fill="#61ECFF"/>
<path d="M31.875 316.8C44.2346 316.304 58.8923 320.316 69.427 326.675C83.5582 335.266 93.652 349.108 97.4682 365.127C102.559 386.338 97.528 411.448 86.1083 429.906C73.3078 450.78 52.5648 465.631 28.5869 471.087C25.6314 471.698 22.6498 472.175 19.6507 472.515C19.679 464.957 19.3142 458.367 20.3747 450.851C22.9552 449.881 25.6233 449.355 28.2057 448.471C51.1742 440.592 70.3798 421.934 75.0989 397.756C77.5698 386.24 77.7297 372.846 72.3211 362.123C68.2287 354.007 60.3539 347.383 52.1546 343.522C44.057 339.709 34.4315 338.897 25.6088 340.386C24.2958 340.607 22.1592 341.005 20.9989 341.578C21.2341 338.157 20.3684 321.523 21.5106 319.847C23.0272 317.621 29.3411 317.119 31.875 316.8Z" fill="#1082FF"/>
<path d="M20.9176 263.234C21.0855 263.28 20.9684 263.238 21.222 263.449C21.32 268.93 21.1989 274.475 21.2409 279.957C21.2554 281.839 21.0611 284.188 21.1371 285.946C19.9524 286.147 18.7851 286.452 17.6262 286.767C-1.19032 291.924 -17.1585 304.329 -26.7356 321.232C-34.3571 334.546 -38.0488 352.804 -33.8962 367.723C-31.0677 378.145 -24.1568 387.004 -14.7079 392.323C-4.0668 398.234 8.22577 399.327 19.9056 396.048C19.9996 400.582 20.3444 405.096 20.2758 409.657C20.2327 412.524 20.4943 414.47 19.8932 417.313C14.8255 420.547 5.81587 420.475 -0.0386681 419.846C-31.5832 417.761 -57.177 389.51 -58.3949 358.72C-58.8481 347.262 -56.8542 334.275 -52.6005 323.681C-44.4565 303.4 -28.5494 284.008 -9.20428 273.404C-0.948073 268.879 11.515 263.728 20.9176 263.234Z" fill="#1082FF"/>
<path d="M608.621 57.2069C609.193 57.1812 609.766 57.1629 610.339 57.1523C617.255 57.0263 624.299 58.2037 630.96 59.9686C646.619 64.1186 660.71 71.573 672.418 82.7747C684.295 94.1376 692.121 107.572 696.992 123.143C698.039 126.489 699.515 130.992 699.484 134.509C699.479 134.986 699.436 135.509 699.038 135.827C697.685 136.906 679.579 136.46 676.588 136.41C675.595 130.315 673.675 124.406 670.895 118.885C662.363 101.854 647.807 89.7216 629.761 83.6866C621.515 80.8605 615.418 80.1534 606.689 80.5476C595.276 81.0162 584.522 85.994 576.816 94.3756C567.139 104.901 563.73 118.355 566.013 132.367C566.223 133.654 566.67 135.06 566.73 136.347C564.632 137.352 548.122 136.397 545.301 136.195C544.358 133.939 543.639 128.823 543.448 126.267C542.259 110.386 548.252 93.0372 558.731 81.0194C572.106 65.6822 588.558 58.653 608.621 57.2069Z" fill="#1EC4FF"/>
<path d="M495.889 136.354C499.78 136.167 507.687 135.931 511.465 137.052C512.476 137.352 513.769 143.932 514.391 145.716C520.768 163.634 534.019 178.318 551.253 186.56C564.399 192.928 581.161 195.228 595.145 190.466C611.76 184.81 623.715 167.603 623.996 150.269C624.063 146.093 623.527 140.968 622.1 137.057C623.534 137.031 625.039 136.747 626.467 136.748C631.785 136.76 637.166 136.376 642.473 136.659C644.5 136.766 645.097 139.483 645.491 141.116C647.158 148.02 646.323 155.315 645.259 162.249C643.167 172.802 638.55 182.7 631.796 191.105C621.499 203.871 605.617 212.867 589.213 214.618C565.259 217.39 541.191 210.464 522.433 195.402C504.053 180.883 492.32 159.628 489.877 136.421C491.92 136.452 493.847 136.408 495.889 136.354Z" fill="#61ECFF"/>
<path d="M605.875 84.8001C618.235 84.3041 632.892 88.316 643.427 94.6755C657.558 103.266 667.652 117.108 671.468 133.127C676.559 154.338 671.528 179.448 660.108 197.906C647.308 218.78 626.565 233.631 602.587 239.087C599.631 239.698 596.65 240.175 593.651 240.515C593.679 232.957 593.314 226.367 594.375 218.851C596.955 217.881 599.623 217.355 602.206 216.471C625.174 208.592 644.38 189.934 649.099 165.756C651.57 154.24 651.73 140.846 646.321 130.123C642.229 122.007 634.354 115.383 626.155 111.522C618.057 107.709 608.432 106.897 599.609 108.386C598.296 108.607 596.159 109.005 594.999 109.578C595.234 106.157 594.368 89.5231 595.511 87.8468C597.027 85.6214 603.341 85.1192 605.875 84.8001Z" fill="#1082FF"/>
<path d="M594.918 31.2344C595.086 31.2796 594.968 31.2377 595.222 31.4494C595.32 36.9296 595.199 42.4747 595.241 47.9572C595.255 49.8392 595.061 52.1876 595.137 53.9462C593.952 54.1469 592.785 54.4525 591.626 54.7672C572.81 59.9239 556.842 72.3294 547.264 89.2319C539.643 102.546 535.951 120.804 540.104 135.723C542.932 146.145 549.843 155.004 559.292 160.323C569.933 166.234 582.226 167.327 593.906 164.048C594 168.582 594.344 173.096 594.276 177.657C594.233 180.524 594.494 182.47 593.893 185.313C588.825 188.547 579.816 188.475 573.961 187.846C542.417 185.761 516.823 157.51 515.605 126.72C515.152 115.262 517.146 102.275 521.4 91.6814C529.544 71.3995 545.451 52.0076 564.796 41.4041C573.052 36.8787 585.515 31.7281 594.918 31.2344Z" fill="#1082FF"/>
<path d="M813.621 277.207C814.193 277.181 814.766 277.163 815.339 277.152C822.255 277.026 829.299 278.204 835.96 279.969C851.619 284.119 865.71 291.573 877.418 302.775C889.295 314.138 897.121 327.572 901.992 343.143C903.039 346.489 904.515 350.992 904.484 354.509C904.479 354.986 904.436 355.509 904.038 355.827C902.685 356.906 884.579 356.46 881.588 356.41C880.595 350.315 878.675 344.406 875.895 338.885C867.363 321.854 852.807 309.722 834.761 303.687C826.515 300.861 820.418 300.153 811.689 300.548C800.276 301.016 789.522 305.994 781.816 314.376C772.139 324.901 768.73 338.355 771.013 352.367C771.223 353.654 771.67 355.06 771.73 356.347C769.632 357.352 753.122 356.397 750.301 356.195C749.358 353.939 748.639 348.823 748.448 346.267C747.259 330.386 753.252 313.037 763.731 301.019C777.106 285.682 793.558 278.653 813.621 277.207Z" fill="#1EC4FF"/>
<path d="M700.889 356.354C704.78 356.167 712.687 355.931 716.465 357.052C717.476 357.352 718.769 363.932 719.391 365.716C725.768 383.634 739.019 398.318 756.253 406.56C769.399 412.928 786.161 415.228 800.145 410.466C816.76 404.81 828.715 387.603 828.996 370.269C829.063 366.093 828.527 360.968 827.1 357.057C828.534 357.031 830.039 356.747 831.467 356.748C836.785 356.76 842.166 356.376 847.473 356.659C849.5 356.766 850.097 359.483 850.491 361.116C852.158 368.02 851.323 375.315 850.259 382.249C848.167 392.802 843.55 402.7 836.796 411.105C826.499 423.871 810.617 432.867 794.213 434.618C770.259 437.39 746.191 430.464 727.433 415.402C709.053 400.883 697.32 379.628 694.877 356.421C696.92 356.452 698.847 356.408 700.889 356.354Z" fill="#61ECFF"/>
<path d="M810.876 304.8C823.236 304.304 837.893 308.316 848.428 314.675C862.559 323.266 872.653 337.108 876.469 353.127C881.56 374.338 876.529 399.448 865.109 417.906C852.309 438.78 831.566 453.631 807.588 459.087C804.632 459.698 801.651 460.175 798.652 460.515C798.68 452.957 798.315 446.367 799.376 438.851C801.956 437.881 804.624 437.355 807.207 436.471C830.175 428.592 849.381 409.934 854.1 385.756C856.571 374.24 856.731 360.846 851.322 350.123C847.23 342.007 839.355 335.383 831.156 331.522C823.058 327.709 813.433 326.897 804.61 328.386C803.297 328.607 801.16 329.005 800 329.578C800.235 326.157 799.369 309.523 800.512 307.847C802.028 305.621 808.342 305.119 810.876 304.8Z" fill="#1082FF"/>
<path d="M799.917 251.234C800.085 251.28 799.967 251.238 800.221 251.449C800.319 256.93 800.198 262.475 800.24 267.957C800.254 269.839 800.06 272.188 800.136 273.946C798.951 274.147 797.784 274.452 796.625 274.767C777.809 279.924 761.841 292.329 752.263 309.232C744.642 322.546 740.95 340.804 745.103 355.723C747.931 366.145 754.842 375.004 764.291 380.323C774.932 386.234 787.225 387.327 798.905 384.048C798.999 388.582 799.343 393.096 799.275 397.657C799.232 400.524 799.493 402.47 798.892 405.313C793.824 408.547 784.815 408.475 778.96 407.846C747.416 405.761 721.822 377.51 720.604 346.72C720.151 335.262 722.145 322.275 726.399 311.681C734.543 291.4 750.45 272.008 769.795 261.404C778.051 256.879 790.514 251.728 799.917 251.234Z" fill="#1082FF"/>
<path d="M1023.62 47.2069C1024.19 47.1812 1024.77 47.1629 1025.34 47.1523C1032.25 47.0263 1039.3 48.2037 1045.96 49.9686C1061.62 54.1186 1075.71 61.573 1087.42 72.7747C1099.29 84.1376 1107.12 97.5721 1111.99 113.143C1113.04 116.489 1114.51 120.992 1114.48 124.509C1114.48 124.986 1114.44 125.509 1114.04 125.827C1112.68 126.906 1094.58 126.46 1091.59 126.41C1090.59 120.315 1088.67 114.406 1085.9 108.885C1077.36 91.8544 1062.81 79.7216 1044.76 73.6866C1036.52 70.8605 1030.42 70.1534 1021.69 70.5476C1010.28 71.0162 999.522 75.994 991.816 84.3756C982.139 94.9006 978.73 108.355 981.013 122.367C981.223 123.654 981.67 125.06 981.73 126.347C979.632 127.352 963.122 126.397 960.301 126.195C959.358 123.939 958.639 118.823 958.448 116.267C957.259 100.386 963.252 83.0372 973.731 71.0194C987.106 55.6822 1003.56 48.653 1023.62 47.2069Z" fill="#1EC4FF"/>
<path d="M910.889 126.354C914.78 126.167 922.687 125.931 926.465 127.052C927.476 127.352 928.769 133.932 929.391 135.716C935.768 153.634 949.019 168.318 966.253 176.56C979.399 182.928 996.161 185.228 1010.14 180.466C1026.76 174.81 1038.71 157.603 1039 140.269C1039.06 136.093 1038.53 130.968 1037.1 127.057C1038.53 127.031 1040.04 126.747 1041.47 126.748C1046.78 126.76 1052.17 126.376 1057.47 126.659C1059.5 126.766 1060.1 129.483 1060.49 131.116C1062.16 138.02 1061.32 145.315 1060.26 152.249C1058.17 162.802 1053.55 172.7 1046.8 181.105C1036.5 193.871 1020.62 202.867 1004.21 204.618C980.259 207.39 956.191 200.464 937.433 185.402C919.053 170.883 907.32 149.628 904.877 126.421C906.92 126.452 908.847 126.408 910.889 126.354Z" fill="#61ECFF"/>
<path d="M1020.88 74.8001C1033.24 74.3041 1047.89 78.316 1058.43 84.6755C1072.56 93.2662 1082.65 107.108 1086.47 123.127C1091.56 144.338 1086.53 169.448 1075.11 187.906C1062.31 208.78 1041.57 223.631 1017.59 229.087C1014.63 229.698 1011.65 230.175 1008.65 230.515C1008.68 222.957 1008.32 216.367 1009.38 208.851C1011.96 207.881 1014.62 207.355 1017.21 206.471C1040.18 198.592 1059.38 179.934 1064.1 155.756C1066.57 144.24 1066.73 130.846 1061.32 120.123C1057.23 112.007 1049.35 105.383 1041.16 101.522C1033.06 97.709 1023.43 96.8968 1014.61 98.3856C1013.3 98.6074 1011.16 99.0054 1010 99.5781C1010.24 96.1568 1009.37 79.5231 1010.51 77.8468C1012.03 75.6214 1018.34 75.1192 1020.88 74.8001Z" fill="#1082FF"/>
<path d="M1009.92 21.2344C1010.08 21.2796 1009.97 21.2377 1010.22 21.4494C1010.32 26.9296 1010.2 32.4747 1010.24 37.9572C1010.25 39.8392 1010.06 42.1876 1010.14 43.9462C1008.95 44.1469 1007.78 44.4525 1006.63 44.7672C987.809 49.9239 971.841 62.3294 962.263 79.2319C954.642 92.546 950.95 110.804 955.103 125.723C957.931 136.145 964.842 145.004 974.291 150.323C984.932 156.234 997.225 157.327 1008.9 154.048C1009 158.582 1009.34 163.096 1009.27 167.657C1009.23 170.524 1009.49 172.47 1008.89 175.313C1003.82 178.547 994.815 178.475 988.96 177.846C957.416 175.761 931.822 147.51 930.604 116.72C930.151 105.262 932.145 92.2754 936.399 81.6814C944.543 61.3995 960.45 42.0076 979.795 31.4041C988.051 26.8787 1000.51 21.7281 1009.92 21.2344Z" fill="#1082FF"/>
<path d="M1224.62 289.207C1225.19 289.181 1225.77 289.163 1226.34 289.152C1233.25 289.026 1240.3 290.204 1246.96 291.969C1262.62 296.119 1276.71 303.573 1288.42 314.775C1300.29 326.138 1308.12 339.572 1312.99 355.143C1314.04 358.489 1315.51 362.992 1315.48 366.509C1315.48 366.986 1315.44 367.509 1315.04 367.827C1313.68 368.906 1295.58 368.46 1292.59 368.41C1291.59 362.315 1289.67 356.406 1286.9 350.885C1278.36 333.854 1263.81 321.722 1245.76 315.687C1237.52 312.861 1231.42 312.153 1222.69 312.548C1211.28 313.016 1200.52 317.994 1192.82 326.376C1183.14 336.901 1179.73 350.355 1182.01 364.367C1182.22 365.654 1182.67 367.06 1182.73 368.347C1180.63 369.352 1164.12 368.397 1161.3 368.195C1160.36 365.939 1159.64 360.823 1159.45 358.267C1158.26 342.386 1164.25 325.037 1174.73 313.019C1188.11 297.682 1204.56 290.653 1224.62 289.207Z" fill="#1EC4FF"/>
<path d="M1111.89 368.354C1115.78 368.167 1123.69 367.931 1127.47 369.052C1128.48 369.352 1129.77 375.932 1130.39 377.716C1136.77 395.634 1150.02 410.318 1167.25 418.56C1180.4 424.928 1197.16 427.228 1211.14 422.466C1227.76 416.81 1239.71 399.603 1240 382.269C1240.06 378.093 1239.53 372.968 1238.1 369.057C1239.53 369.031 1241.04 368.747 1242.47 368.748C1247.78 368.76 1253.17 368.376 1258.47 368.659C1260.5 368.766 1261.1 371.483 1261.49 373.116C1263.16 380.02 1262.32 387.315 1261.26 394.249C1259.17 404.802 1254.55 414.7 1247.8 423.105C1237.5 435.871 1221.62 444.867 1205.21 446.618C1181.26 449.39 1157.19 442.464 1138.43 427.402C1120.05 412.883 1108.32 391.628 1105.88 368.421C1107.92 368.452 1109.85 368.408 1111.89 368.354Z" fill="#61ECFF"/>
<path d="M1221.88 316.8C1234.24 316.304 1248.89 320.316 1259.43 326.675C1273.56 335.266 1283.65 349.108 1287.47 365.127C1292.56 386.338 1287.53 411.448 1276.11 429.906C1263.31 450.78 1242.57 465.631 1218.59 471.087C1215.63 471.698 1212.65 472.175 1209.65 472.515C1209.68 464.957 1209.32 458.367 1210.38 450.851C1212.96 449.881 1215.62 449.355 1218.21 448.471C1241.18 440.592 1260.38 421.934 1265.1 397.756C1267.57 386.24 1267.73 372.846 1262.32 362.123C1258.23 354.007 1250.35 347.383 1242.16 343.522C1234.06 339.709 1224.43 338.897 1215.61 340.386C1214.3 340.607 1212.16 341.005 1211 341.578C1211.24 338.157 1210.37 321.523 1211.51 319.847C1213.03 317.621 1219.34 317.119 1221.88 316.8Z" fill="#1082FF"/>
<path d="M1210.92 263.234C1211.08 263.28 1210.97 263.238 1211.22 263.449C1211.32 268.93 1211.2 274.475 1211.24 279.957C1211.25 281.839 1211.06 284.188 1211.14 285.946C1209.95 286.147 1208.78 286.452 1207.63 286.767C1188.81 291.924 1172.84 304.329 1163.26 321.232C1155.64 334.546 1151.95 352.804 1156.1 367.723C1158.93 378.145 1165.84 387.004 1175.29 392.323C1185.93 398.234 1198.22 399.327 1209.9 396.048C1210 400.582 1210.34 405.096 1210.27 409.657C1210.23 412.524 1210.49 414.47 1209.89 417.313C1204.82 420.547 1195.81 420.475 1189.96 419.846C1158.42 417.761 1132.82 389.51 1131.6 358.72C1131.15 347.262 1133.14 334.275 1137.4 323.681C1145.54 303.4 1161.45 284.008 1180.79 273.404C1189.05 268.879 1201.51 263.728 1210.92 263.234Z" fill="#1082FF"/>
<path d="M1431.62 54.2069C1432.19 54.1812 1432.77 54.1629 1433.34 54.1523C1440.25 54.0263 1447.3 55.2037 1453.96 56.9686C1469.62 61.1186 1483.71 68.573 1495.42 79.7747C1507.29 91.1376 1515.12 104.572 1519.99 120.143C1521.04 123.489 1522.51 127.992 1522.48 131.509C1522.48 131.986 1522.44 132.509 1522.04 132.827C1520.68 133.906 1502.58 133.46 1499.59 133.41C1498.59 127.315 1496.67 121.406 1493.9 115.885C1485.36 98.8544 1470.81 86.7216 1452.76 80.6866C1444.52 77.8605 1438.42 77.1534 1429.69 77.5476C1418.28 78.0162 1407.52 82.994 1399.82 91.3756C1390.14 101.901 1386.73 115.355 1389.01 129.367C1389.22 130.654 1389.67 132.06 1389.73 133.347C1387.63 134.352 1371.12 133.397 1368.3 133.195C1367.36 130.939 1366.64 125.823 1366.45 123.267C1365.26 107.386 1371.25 90.0372 1381.73 78.0194C1395.11 62.6822 1411.56 55.653 1431.62 54.2069Z" fill="#1EC4FF"/>
<path d="M1318.89 133.354C1322.78 133.167 1330.69 132.931 1334.47 134.052C1335.48 134.352 1336.77 140.932 1337.39 142.716C1343.77 160.634 1357.02 175.318 1374.25 183.56C1387.4 189.928 1404.16 192.228 1418.14 187.466C1434.76 181.81 1446.71 164.603 1447 147.269C1447.06 143.093 1446.53 137.968 1445.1 134.057C1446.53 134.031 1448.04 133.747 1449.47 133.748C1454.78 133.76 1460.17 133.376 1465.47 133.659C1467.5 133.766 1468.1 136.483 1468.49 138.116C1470.16 145.02 1469.32 152.315 1468.26 159.249C1466.17 169.802 1461.55 179.7 1454.8 188.105C1444.5 200.871 1428.62 209.867 1412.21 211.618C1388.26 214.39 1364.19 207.464 1345.43 192.402C1327.05 177.883 1315.32 156.628 1312.88 133.421C1314.92 133.452 1316.85 133.408 1318.89 133.354Z" fill="#61ECFF"/>
<path d="M1428.88 81.8001C1441.24 81.3041 1455.89 85.316 1466.43 91.6755C1480.56 100.266 1490.65 114.108 1494.47 130.127C1499.56 151.338 1494.53 176.448 1483.11 194.906C1470.31 215.78 1449.57 230.631 1425.59 236.087C1422.63 236.698 1419.65 237.175 1416.65 237.515C1416.68 229.957 1416.32 223.367 1417.38 215.851C1419.96 214.881 1422.62 214.355 1425.21 213.471C1448.18 205.592 1467.38 186.934 1472.1 162.756C1474.57 151.24 1474.73 137.846 1469.32 127.123C1465.23 119.007 1457.35 112.383 1449.16 108.522C1441.06 104.709 1431.43 103.897 1422.61 105.386C1421.3 105.607 1419.16 106.005 1418 106.578C1418.24 103.157 1417.37 86.5231 1418.51 84.8468C1420.03 82.6214 1426.34 82.1192 1428.88 81.8001Z" fill="#1082FF"/>
<path d="M1417.92 28.2344C1418.08 28.2796 1417.97 28.2377 1418.22 28.4494C1418.32 33.9296 1418.2 39.4747 1418.24 44.9572C1418.25 46.8392 1418.06 49.1876 1418.14 50.9462C1416.95 51.1469 1415.78 51.4525 1414.63 51.7672C1395.81 56.9239 1379.84 69.3294 1370.26 86.2319C1362.64 99.546 1358.95 117.804 1363.1 132.723C1365.93 143.145 1372.84 152.004 1382.29 157.323C1392.93 163.234 1405.22 164.327 1416.9 161.048C1417 165.582 1417.34 170.096 1417.27 174.657C1417.23 177.524 1417.49 179.47 1416.89 182.313C1411.82 185.547 1402.81 185.475 1396.96 184.846C1365.42 182.761 1339.82 154.51 1338.6 123.72C1338.15 112.262 1340.14 99.2754 1344.4 88.6814C1352.54 68.3995 1368.45 49.0076 1387.79 38.4041C1396.05 33.8787 1408.51 28.7281 1417.92 28.2344Z" fill="#1082FF"/>
<path d="M190.621 477.207C191.193 477.181 191.766 477.163 192.339 477.152C199.255 477.026 206.299 478.204 212.96 479.969C228.619 484.119 242.71 491.573 254.418 502.775C266.295 514.138 274.121 527.572 278.992 543.143C280.039 546.489 281.515 550.992 281.484 554.509C281.479 554.986 281.436 555.509 281.038 555.827C279.685 556.906 261.579 556.46 258.588 556.41C257.595 550.315 255.675 544.406 252.895 538.885C244.363 521.854 229.807 509.722 211.761 503.687C203.515 500.861 197.418 500.153 188.689 500.548C177.276 501.016 166.522 505.994 158.816 514.376C149.139 524.901 145.73 538.355 148.013 552.367C148.223 553.654 148.67 555.06 148.73 556.347C146.632 557.352 130.122 556.397 127.301 556.195C126.358 553.939 125.639 548.823 125.448 546.267C124.259 530.386 130.252 513.037 140.731 501.019C154.106 485.682 170.558 478.653 190.621 477.207Z" fill="#1EC4FF"/>
<path d="M77.8894 556.354C81.7801 556.167 89.687 555.931 93.4653 557.052C94.4765 557.352 95.7686 563.932 96.3909 565.716C102.768 583.634 116.019 598.318 133.253 606.56C146.399 612.928 163.161 615.228 177.145 610.466C193.76 604.81 205.715 587.603 205.996 570.269C206.063 566.093 205.527 560.968 204.1 557.057C205.534 557.031 207.039 556.747 208.467 556.748C213.785 556.76 219.166 556.376 224.473 556.659C226.5 556.766 227.097 559.483 227.491 561.116C229.158 568.02 228.323 575.315 227.259 582.249C225.167 592.802 220.55 602.7 213.796 611.105C203.499 623.871 187.617 632.867 171.213 634.618C147.259 637.39 123.191 630.464 104.433 615.402C86.0529 600.883 74.3204 579.628 71.877 556.421C73.9199 556.452 75.8468 556.408 77.8894 556.354Z" fill="#61ECFF"/>
<path d="M187.875 504.8C200.235 504.304 214.892 508.316 225.427 514.675C239.558 523.266 249.652 537.108 253.468 553.127C258.559 574.338 253.528 599.448 242.108 617.906C229.308 638.78 208.565 653.631 184.587 659.087C181.631 659.698 178.65 660.175 175.651 660.515C175.679 652.957 175.314 646.367 176.375 638.851C178.955 637.881 181.623 637.355 184.206 636.471C207.174 628.592 226.38 609.934 231.099 585.756C233.57 574.24 233.73 560.846 228.321 550.123C224.229 542.007 216.354 535.383 208.155 531.522C200.057 527.709 190.432 526.897 181.609 528.386C180.296 528.607 178.159 529.005 176.999 529.578C177.234 526.157 176.368 509.523 177.511 507.847C179.027 505.621 185.341 505.119 187.875 504.8Z" fill="#1082FF"/>
<path d="M176.918 451.234C177.086 451.28 176.968 451.238 177.222 451.449C177.32 456.93 177.199 462.475 177.241 467.957C177.255 469.839 177.061 472.188 177.137 473.946C175.952 474.147 174.785 474.452 173.626 474.767C154.81 479.924 138.842 492.329 129.264 509.232C121.643 522.546 117.951 540.804 122.104 555.723C124.932 566.145 131.843 575.004 141.292 580.323C151.933 586.234 164.226 587.327 175.906 584.048C176 588.582 176.344 593.096 176.276 597.657C176.233 600.524 176.494 602.47 175.893 605.313C170.825 608.547 161.816 608.475 155.961 607.846C124.417 605.761 98.823 577.51 97.6051 546.72C97.1519 535.262 99.1458 522.275 103.4 511.681C111.544 491.4 127.451 472.008 146.796 461.404C155.052 456.879 167.515 451.728 176.918 451.234Z" fill="#1082FF"/>
<path d="M380.621 716.207C381.193 716.181 381.766 716.163 382.339 716.152C389.255 716.026 396.299 717.204 402.96 718.969C418.619 723.119 432.71 730.573 444.418 741.775C456.295 753.138 464.121 766.572 468.992 782.143C470.039 785.489 471.515 789.992 471.484 793.509C471.479 793.986 471.436 794.509 471.038 794.827C469.685 795.906 451.579 795.46 448.588 795.41C447.595 789.315 445.675 783.406 442.895 777.885C434.363 760.854 419.807 748.722 401.761 742.687C393.515 739.861 387.418 739.153 378.689 739.548C367.276 740.016 356.522 744.994 348.816 753.376C339.139 763.901 335.73 777.355 338.013 791.367C338.223 792.654 338.67 794.06 338.73 795.347C336.632 796.352 320.122 795.397 317.301 795.195C316.358 792.939 315.639 787.823 315.448 785.267C314.259 769.386 320.252 752.037 330.731 740.019C344.106 724.682 360.558 717.653 380.621 716.207Z" fill="#1EC4FF"/>
<path d="M267.889 795.354C271.78 795.167 279.687 794.931 283.465 796.052C284.476 796.352 285.769 802.932 286.391 804.716C292.768 822.634 306.019 837.318 323.253 845.56C336.399 851.928 353.161 854.228 367.145 849.466C383.76 843.81 395.715 826.603 395.996 809.269C396.063 805.093 395.527 799.968 394.1 796.057C395.534 796.031 397.039 795.747 398.467 795.748C403.785 795.76 409.166 795.376 414.473 795.659C416.5 795.766 417.097 798.483 417.491 800.116C419.158 807.02 418.323 814.315 417.259 821.249C415.167 831.802 410.55 841.7 403.796 850.105C393.499 862.871 377.617 871.867 361.213 873.618C337.259 876.39 313.191 869.464 294.433 854.402C276.053 839.883 264.32 818.628 261.877 795.421C263.92 795.452 265.847 795.408 267.889 795.354Z" fill="#61ECFF"/>
<path d="M377.875 743.8C390.235 743.304 404.892 747.316 415.427 753.675C429.558 762.266 439.652 776.108 443.468 792.127C448.559 813.338 443.528 838.448 432.108 856.906C419.308 877.78 398.565 892.631 374.587 898.087C371.631 898.698 368.65 899.175 365.651 899.515C365.679 891.957 365.314 885.367 366.375 877.851C368.955 876.881 371.623 876.355 374.206 875.471C397.174 867.592 416.38 848.934 421.099 824.756C423.57 813.24 423.73 799.846 418.321 789.123C414.229 781.007 406.354 774.383 398.155 770.522C390.057 766.709 380.432 765.897 371.609 767.386C370.296 767.607 368.159 768.005 366.999 768.578C367.234 765.157 366.368 748.523 367.511 746.847C369.027 744.621 375.341 744.119 377.875 743.8Z" fill="#1082FF"/>
<path d="M366.918 690.234C367.086 690.28 366.968 690.238 367.222 690.449C367.32 695.93 367.199 701.475 367.241 706.957C367.255 708.839 367.061 711.188 367.137 712.946C365.952 713.147 364.785 713.452 363.626 713.767C344.81 718.924 328.842 731.329 319.264 748.232C311.643 761.546 307.951 779.804 312.104 794.723C314.932 805.145 321.843 814.004 331.292 819.323C341.933 825.234 354.226 826.327 365.906 823.048C366 827.582 366.344 832.096 366.276 836.657C366.233 839.524 366.494 841.47 365.893 844.313C360.825 847.547 351.816 847.475 345.961 846.846C314.417 844.761 288.823 816.51 287.605 785.72C287.152 774.262 289.146 761.275 293.4 750.681C301.544 730.4 317.451 711.008 336.796 700.404C345.052 695.879 357.515 690.728 366.918 690.234Z" fill="#1082FF"/>
<path d="M58.6209 721.207C59.1926 721.181 59.766 721.163 60.3393 721.152C67.2547 721.026 74.2993 722.204 80.9596 723.969C96.6187 728.119 110.71 735.573 122.418 746.775C134.295 758.138 142.121 771.572 146.992 787.143C148.039 790.489 149.515 794.992 149.484 798.509C149.479 798.986 149.436 799.509 149.038 799.827C147.685 800.906 129.579 800.46 126.588 800.41C125.595 794.315 123.675 788.406 120.895 782.885C112.363 765.854 97.8073 753.722 79.7613 747.687C71.5151 744.861 65.4185 744.153 56.6894 744.548C45.2755 745.016 34.5219 749.994 26.8162 758.376C17.1392 768.901 13.7299 782.355 16.0129 796.367C16.2227 797.654 16.6695 799.06 16.7296 800.347C14.6324 801.352 -1.87843 800.397 -4.69855 800.195C-5.64203 797.939 -6.3607 792.823 -6.55208 790.267C-7.74056 774.386 -1.74827 757.037 8.73131 745.019C22.1056 729.682 38.5578 722.653 58.6209 721.207Z" fill="#1EC4FF"/>
<path d="M-54.1106 800.354C-50.2199 800.167 -42.313 799.931 -38.5347 801.052C-37.5235 801.352 -36.2314 807.932 -35.6091 809.716C-29.2325 827.634 -15.9806 842.318 1.25276 850.56C14.3985 856.928 31.1613 859.228 45.1447 854.466C61.7603 848.81 73.7146 831.603 73.9956 814.269C74.0634 810.093 73.5272 804.968 72.0996 801.057C73.5337 801.031 75.0389 800.747 76.4665 800.748C81.7847 800.76 87.1659 800.376 92.4728 800.659C94.4996 800.766 95.0972 803.483 95.4912 805.116C97.1579 812.02 96.323 819.315 95.2587 826.249C93.1673 836.802 88.55 846.7 81.796 855.105C71.4988 867.871 55.6169 876.867 39.2129 878.618C15.2592 881.39 -8.80918 874.464 -27.5668 859.402C-45.9471 844.883 -57.6796 823.628 -60.123 800.421C-58.0801 800.452 -56.1532 800.408 -54.1106 800.354Z" fill="#61ECFF"/>
<path d="M55.875 748.8C68.2346 748.304 82.8923 752.316 93.427 758.675C107.558 767.266 117.652 781.108 121.468 797.127C126.559 818.338 121.528 843.448 110.108 861.906C97.3078 882.78 76.5648 897.631 52.5869 903.087C49.6314 903.698 46.6498 904.175 43.6507 904.515C43.679 896.957 43.3142 890.367 44.3747 882.851C46.9552 881.881 49.6233 881.355 52.2057 880.471C75.1742 872.592 94.3798 853.934 99.0989 829.756C101.57 818.24 101.73 804.846 96.3211 794.123C92.2287 786.007 84.3539 779.383 76.1546 775.522C68.057 771.709 58.4315 770.897 49.6088 772.386C48.2958 772.607 46.1592 773.005 44.9989 773.578C45.2341 770.157 44.3684 753.523 45.5106 751.847C47.0272 749.621 53.3411 749.119 55.875 748.8Z" fill="#1082FF"/>
<path d="M44.9176 695.234C45.0855 695.28 44.9684 695.238 45.222 695.449C45.32 700.93 45.1989 706.475 45.2409 711.957C45.2554 713.839 45.0611 716.188 45.1371 717.946C43.9524 718.147 42.7851 718.452 41.6262 718.767C22.8097 723.924 6.84152 736.329 -2.73559 753.232C-10.3571 766.546 -14.0488 784.804 -9.89617 799.723C-7.06766 810.145 -0.156753 819.004 9.29213 824.323C19.9332 830.234 32.2258 831.327 43.9056 828.048C43.9996 832.582 44.3444 837.096 44.2758 841.657C44.2327 844.524 44.4943 846.47 43.8932 849.313C38.8255 852.547 29.8159 852.475 23.9613 851.846C-7.58317 849.761 -33.177 821.51 -34.3949 790.72C-34.8481 779.262 -32.8542 766.275 -28.6005 755.681C-20.4565 735.4 -4.54939 716.008 14.7957 705.404C23.0519 700.879 35.515 695.728 44.9176 695.234Z" fill="#1082FF"/>
<path d="M632.621 489.207C633.193 489.181 633.766 489.163 634.339 489.152C641.255 489.026 648.299 490.204 654.96 491.969C670.619 496.119 684.71 503.573 696.418 514.775C708.295 526.138 716.121 539.572 720.992 555.143C722.039 558.489 723.515 562.992 723.484 566.509C723.479 566.986 723.436 567.509 723.038 567.827C721.685 568.906 703.579 568.46 700.588 568.41C699.595 562.315 697.675 556.406 694.895 550.885C686.363 533.854 671.807 521.722 653.761 515.687C645.515 512.861 639.418 512.153 630.689 512.548C619.276 513.016 608.522 517.994 600.816 526.376C591.139 536.901 587.73 550.355 590.013 564.367C590.223 565.654 590.67 567.06 590.73 568.347C588.632 569.352 572.122 568.397 569.301 568.195C568.358 565.939 567.639 560.823 567.448 558.267C566.259 542.386 572.252 525.037 582.731 513.019C596.106 497.682 612.558 490.653 632.621 489.207Z" fill="#1EC4FF"/>
<path d="M519.889 568.354C523.78 568.167 531.687 567.931 535.465 569.052C536.476 569.352 537.769 575.932 538.391 577.716C544.768 595.634 558.019 610.318 575.253 618.56C588.399 624.928 605.161 627.228 619.145 622.466C635.76 616.81 647.715 599.603 647.996 582.269C648.063 578.093 647.527 572.968 646.1 569.057C647.534 569.031 649.039 568.747 650.467 568.748C655.785 568.76 661.166 568.376 666.473 568.659C668.5 568.766 669.097 571.483 669.491 573.116C671.158 580.02 670.323 587.315 669.259 594.249C667.167 604.802 662.55 614.7 655.796 623.105C645.499 635.871 629.617 644.867 613.213 646.618C589.259 649.39 565.191 642.464 546.433 627.402C528.053 612.883 516.32 591.628 513.877 568.421C515.92 568.452 517.847 568.408 519.889 568.354Z" fill="#61ECFF"/>
<path d="M629.876 516.8C642.236 516.304 656.893 520.316 667.428 526.675C681.559 535.266 691.653 549.108 695.469 565.127C700.56 586.338 695.529 611.448 684.109 629.906C671.309 650.78 650.566 665.631 626.588 671.087C623.632 671.698 620.651 672.175 617.652 672.515C617.68 664.957 617.315 658.367 618.376 650.851C620.956 649.881 623.624 649.355 626.207 648.471C649.175 640.592 668.381 621.934 673.1 597.756C675.571 586.24 675.731 572.846 670.322 562.123C666.23 554.007 658.355 547.383 650.156 543.522C642.058 539.709 632.433 538.897 623.61 540.386C622.297 540.607 620.16 541.005 619 541.578C619.235 538.157 618.369 521.523 619.512 519.847C621.028 517.621 627.342 517.119 629.876 516.8Z" fill="#1082FF"/>
<path d="M618.918 463.234C619.086 463.28 618.968 463.238 619.222 463.449C619.32 468.93 619.199 474.475 619.241 479.957C619.255 481.839 619.061 484.188 619.137 485.946C617.952 486.147 616.785 486.452 615.626 486.767C596.81 491.924 580.842 504.329 571.264 521.232C563.643 534.546 559.951 552.804 564.104 567.723C566.932 578.145 573.843 587.004 583.292 592.323C593.933 598.234 606.226 599.327 617.906 596.048C618 600.582 618.344 605.096 618.276 609.657C618.233 612.524 618.494 614.47 617.893 617.313C612.825 620.547 603.816 620.475 597.961 619.846C566.417 617.761 540.823 589.51 539.605 558.72C539.152 547.262 541.146 534.275 545.4 523.681C553.544 503.4 569.451 484.008 588.796 473.404C597.052 468.879 609.515 463.728 618.918 463.234Z" fill="#1082FF"/>
<path d="M837.621 709.207C838.193 709.181 838.766 709.163 839.339 709.152C846.255 709.026 853.299 710.204 859.96 711.969C875.619 716.119 889.71 723.573 901.418 734.775C913.295 746.138 921.121 759.572 925.992 775.143C927.039 778.489 928.515 782.992 928.484 786.509C928.479 786.986 928.436 787.509 928.038 787.827C926.685 788.906 908.579 788.46 905.588 788.41C904.595 782.315 902.675 776.406 899.895 770.885C891.363 753.854 876.807 741.722 858.761 735.687C850.515 732.861 844.418 732.153 835.689 732.548C824.276 733.016 813.522 737.994 805.816 746.376C796.139 756.901 792.73 770.355 795.013 784.367C795.223 785.654 795.67 787.06 795.73 788.347C793.632 789.352 777.122 788.397 774.301 788.195C773.358 785.939 772.639 780.823 772.448 778.267C771.259 762.386 777.252 745.037 787.731 733.019C801.106 717.682 817.558 710.653 837.621 709.207Z" fill="#1EC4FF"/>
<path d="M724.889 788.354C728.78 788.167 736.687 787.931 740.465 789.052C741.476 789.352 742.769 795.932 743.391 797.716C749.768 815.634 763.019 830.318 780.253 838.56C793.399 844.928 810.161 847.228 824.145 842.466C840.76 836.81 852.715 819.603 852.996 802.269C853.063 798.093 852.527 792.968 851.1 789.057C852.534 789.031 854.039 788.747 855.467 788.748C860.785 788.76 866.166 788.376 871.473 788.659C873.5 788.766 874.097 791.483 874.491 793.116C876.158 800.02 875.323 807.315 874.259 814.249C872.167 824.802 867.55 834.7 860.796 843.105C850.499 855.871 834.617 864.867 818.213 866.618C794.259 869.39 770.191 862.464 751.433 847.402C733.053 832.883 721.32 811.628 718.877 788.421C720.92 788.452 722.847 788.408 724.889 788.354Z" fill="#61ECFF"/>
<path d="M834.876 736.8C847.236 736.304 861.893 740.316 872.428 746.675C886.559 755.266 896.653 769.108 900.469 785.127C905.56 806.338 900.529 831.448 889.109 849.906C876.309 870.78 855.566 885.631 831.588 891.087C828.632 891.698 825.651 892.175 822.652 892.515C822.68 884.957 822.315 878.367 823.376 870.851C825.956 869.881 828.624 869.355 831.207 868.471C854.175 860.592 873.381 841.934 878.1 817.756C880.571 806.24 880.731 792.846 875.322 782.123C871.23 774.007 863.355 767.383 855.156 763.522C847.058 759.709 837.433 758.897 828.61 760.386C827.297 760.607 825.16 761.005 824 761.578C824.235 758.157 823.369 741.523 824.512 739.847C826.028 737.621 832.342 737.119 834.876 736.8Z" fill="#1082FF"/>
<path d="M823.917 683.234C824.085 683.28 823.967 683.238 824.221 683.449C824.319 688.93 824.198 694.475 824.24 699.957C824.254 701.839 824.06 704.188 824.136 705.946C822.951 706.147 821.784 706.452 820.625 706.767C801.809 711.924 785.841 724.329 776.263 741.232C768.642 754.546 764.95 772.804 769.103 787.723C771.931 798.145 778.842 807.004 788.291 812.323C798.932 818.234 811.225 819.327 822.905 816.048C822.999 820.582 823.343 825.096 823.275 829.657C823.232 832.524 823.493 834.47 822.892 837.313C817.824 840.547 808.815 840.475 802.96 839.846C771.416 837.761 745.822 809.51 744.604 778.72C744.151 767.262 746.145 754.275 750.399 743.681C758.543 723.4 774.45 704.008 793.795 693.404C802.051 688.879 814.514 683.728 823.917 683.234Z" fill="#1082FF"/>
<path d="M1047.62 479.207C1048.19 479.181 1048.77 479.163 1049.34 479.152C1056.25 479.026 1063.3 480.204 1069.96 481.969C1085.62 486.119 1099.71 493.573 1111.42 504.775C1123.29 516.138 1131.12 529.572 1135.99 545.143C1137.04 548.489 1138.51 552.992 1138.48 556.509C1138.48 556.986 1138.44 557.509 1138.04 557.827C1136.68 558.906 1118.58 558.46 1115.59 558.41C1114.59 552.315 1112.67 546.406 1109.9 540.885C1101.36 523.854 1086.81 511.722 1068.76 505.687C1060.52 502.861 1054.42 502.153 1045.69 502.548C1034.28 503.016 1023.52 507.994 1015.82 516.376C1006.14 526.901 1002.73 540.355 1005.01 554.367C1005.22 555.654 1005.67 557.06 1005.73 558.347C1003.63 559.352 987.122 558.397 984.301 558.195C983.358 555.939 982.639 550.823 982.448 548.267C981.259 532.386 987.252 515.037 997.731 503.019C1011.11 487.682 1027.56 480.653 1047.62 479.207Z" fill="#1EC4FF"/>
<path d="M934.889 558.354C938.78 558.167 946.687 557.931 950.465 559.052C951.476 559.352 952.769 565.932 953.391 567.716C959.768 585.634 973.019 600.318 990.253 608.56C1003.4 614.928 1020.16 617.228 1034.14 612.466C1050.76 606.81 1062.71 589.603 1063 572.269C1063.06 568.093 1062.53 562.968 1061.1 559.057C1062.53 559.031 1064.04 558.747 1065.47 558.748C1070.78 558.76 1076.17 558.376 1081.47 558.659C1083.5 558.766 1084.1 561.483 1084.49 563.116C1086.16 570.02 1085.32 577.315 1084.26 584.249C1082.17 594.802 1077.55 604.7 1070.8 613.105C1060.5 625.871 1044.62 634.867 1028.21 636.618C1004.26 639.39 980.191 632.464 961.433 617.402C943.053 602.883 931.32 581.628 928.877 558.421C930.92 558.452 932.847 558.408 934.889 558.354Z" fill="#61ECFF"/>
<path d="M1044.88 506.8C1057.24 506.304 1071.89 510.316 1082.43 516.675C1096.56 525.266 1106.65 539.108 1110.47 555.127C1115.56 576.338 1110.53 601.448 1099.11 619.906C1086.31 640.78 1065.57 655.631 1041.59 661.087C1038.63 661.698 1035.65 662.175 1032.65 662.515C1032.68 654.957 1032.32 648.367 1033.38 640.851C1035.96 639.881 1038.62 639.355 1041.21 638.471C1064.18 630.592 1083.38 611.934 1088.1 587.756C1090.57 576.24 1090.73 562.846 1085.32 552.123C1081.23 544.007 1073.35 537.383 1065.16 533.522C1057.06 529.709 1047.43 528.897 1038.61 530.386C1037.3 530.607 1035.16 531.005 1034 531.578C1034.24 528.157 1033.37 511.523 1034.51 509.847C1036.03 507.621 1042.34 507.119 1044.88 506.8Z" fill="#1082FF"/>
<path d="M1033.92 453.234C1034.08 453.28 1033.97 453.238 1034.22 453.449C1034.32 458.93 1034.2 464.475 1034.24 469.957C1034.25 471.839 1034.06 474.188 1034.14 475.946C1032.95 476.147 1031.78 476.452 1030.63 476.767C1011.81 481.924 995.841 494.329 986.263 511.232C978.642 524.546 974.95 542.804 979.103 557.723C981.931 568.145 988.842 577.004 998.291 582.323C1008.93 588.234 1021.22 589.327 1032.9 586.048C1033 590.582 1033.34 595.096 1033.27 599.657C1033.23 602.524 1033.49 604.47 1032.89 607.313C1027.82 610.547 1018.81 610.475 1012.96 609.846C981.416 607.761 955.822 579.51 954.604 548.72C954.151 537.262 956.145 524.275 960.399 513.681C968.543 493.4 984.45 474.008 1003.79 463.404C1012.05 458.879 1024.51 453.728 1033.92 453.234Z" fill="#1082FF"/>
<path d="M1248.62 721.207C1249.19 721.181 1249.77 721.163 1250.34 721.152C1257.25 721.026 1264.3 722.204 1270.96 723.969C1286.62 728.119 1300.71 735.573 1312.42 746.775C1324.29 758.138 1332.12 771.572 1336.99 787.143C1338.04 790.489 1339.51 794.992 1339.48 798.509C1339.48 798.986 1339.44 799.509 1339.04 799.827C1337.68 800.906 1319.58 800.46 1316.59 800.41C1315.59 794.315 1313.67 788.406 1310.9 782.885C1302.36 765.854 1287.81 753.722 1269.76 747.687C1261.52 744.861 1255.42 744.153 1246.69 744.548C1235.28 745.016 1224.52 749.994 1216.82 758.376C1207.14 768.901 1203.73 782.355 1206.01 796.367C1206.22 797.654 1206.67 799.06 1206.73 800.347C1204.63 801.352 1188.12 800.397 1185.3 800.195C1184.36 797.939 1183.64 792.823 1183.45 790.267C1182.26 774.386 1188.25 757.037 1198.73 745.019C1212.11 729.682 1228.56 722.653 1248.62 721.207Z" fill="#1EC4FF"/>
<path d="M1135.89 800.354C1139.78 800.167 1147.69 799.931 1151.47 801.052C1152.48 801.352 1153.77 807.932 1154.39 809.716C1160.77 827.634 1174.02 842.318 1191.25 850.56C1204.4 856.928 1221.16 859.228 1235.14 854.466C1251.76 848.81 1263.71 831.603 1264 814.269C1264.06 810.093 1263.53 804.968 1262.1 801.057C1263.53 801.031 1265.04 800.747 1266.47 800.748C1271.78 800.76 1277.17 800.376 1282.47 800.659C1284.5 800.766 1285.1 803.483 1285.49 805.116C1287.16 812.02 1286.32 819.315 1285.26 826.249C1283.17 836.802 1278.55 846.7 1271.8 855.105C1261.5 867.871 1245.62 876.867 1229.21 878.618C1205.26 881.39 1181.19 874.464 1162.43 859.402C1144.05 844.883 1132.32 823.628 1129.88 800.421C1131.92 800.452 1133.85 800.408 1135.89 800.354Z" fill="#61ECFF"/>
<path d="M1245.88 748.8C1258.24 748.304 1272.89 752.316 1283.43 758.675C1297.56 767.266 1307.65 781.108 1311.47 797.127C1316.56 818.338 1311.53 843.448 1300.11 861.906C1287.31 882.78 1266.57 897.631 1242.59 903.087C1239.63 903.698 1236.65 904.175 1233.65 904.515C1233.68 896.957 1233.32 890.367 1234.38 882.851C1236.96 881.881 1239.62 881.355 1242.21 880.471C1265.18 872.592 1284.38 853.934 1289.1 829.756C1291.57 818.24 1291.73 804.846 1286.32 794.123C1282.23 786.007 1274.35 779.383 1266.16 775.522C1258.06 771.709 1248.43 770.897 1239.61 772.386C1238.3 772.607 1236.16 773.005 1235 773.578C1235.24 770.157 1234.37 753.523 1235.51 751.847C1237.03 749.621 1243.34 749.119 1245.88 748.8Z" fill="#1082FF"/>
<path d="M1234.92 695.234C1235.08 695.28 1234.97 695.238 1235.22 695.449C1235.32 700.93 1235.2 706.475 1235.24 711.957C1235.25 713.839 1235.06 716.188 1235.14 717.946C1233.95 718.147 1232.78 718.452 1231.63 718.767C1212.81 723.924 1196.84 736.329 1187.26 753.232C1179.64 766.546 1175.95 784.804 1180.1 799.723C1182.93 810.145 1189.84 819.004 1199.29 824.323C1209.93 830.234 1222.22 831.327 1233.9 828.048C1234 832.582 1234.34 837.096 1234.27 841.657C1234.23 844.524 1234.49 846.47 1233.89 849.313C1228.82 852.547 1219.81 852.475 1213.96 851.846C1182.42 849.761 1156.82 821.51 1155.6 790.72C1155.15 779.262 1157.14 766.275 1161.4 755.681C1169.54 735.4 1185.45 716.008 1204.79 705.404C1213.05 700.879 1225.51 695.728 1234.92 695.234Z" fill="#1082FF"/>
<path d="M1455.62 486.207C1456.19 486.181 1456.77 486.163 1457.34 486.152C1464.25 486.026 1471.3 487.204 1477.96 488.969C1493.62 493.119 1507.71 500.573 1519.42 511.775C1531.29 523.138 1539.12 536.572 1543.99 552.143C1545.04 555.489 1546.51 559.992 1546.48 563.509C1546.48 563.986 1546.44 564.509 1546.04 564.827C1544.68 565.906 1526.58 565.46 1523.59 565.41C1522.59 559.315 1520.67 553.406 1517.9 547.885C1509.36 530.854 1494.81 518.722 1476.76 512.687C1468.52 509.861 1462.42 509.153 1453.69 509.548C1442.28 510.016 1431.52 514.994 1423.82 523.376C1414.14 533.901 1410.73 547.355 1413.01 561.367C1413.22 562.654 1413.67 564.06 1413.73 565.347C1411.63 566.352 1395.12 565.397 1392.3 565.195C1391.36 562.939 1390.64 557.823 1390.45 555.267C1389.26 539.386 1395.25 522.037 1405.73 510.019C1419.11 494.682 1435.56 487.653 1455.62 486.207Z" fill="#1EC4FF"/>
<path d="M1342.89 565.354C1346.78 565.167 1354.69 564.931 1358.47 566.052C1359.48 566.352 1360.77 572.932 1361.39 574.716C1367.77 592.634 1381.02 607.318 1398.25 615.56C1411.4 621.928 1428.16 624.228 1442.14 619.466C1458.76 613.81 1470.71 596.603 1471 579.269C1471.06 575.093 1470.53 569.968 1469.1 566.057C1470.53 566.031 1472.04 565.747 1473.47 565.748C1478.78 565.76 1484.17 565.376 1489.47 565.659C1491.5 565.766 1492.1 568.483 1492.49 570.116C1494.16 577.02 1493.32 584.315 1492.26 591.249C1490.17 601.802 1485.55 611.7 1478.8 620.105C1468.5 632.871 1452.62 641.867 1436.21 643.618C1412.26 646.39 1388.19 639.464 1369.43 624.402C1351.05 609.883 1339.32 588.628 1336.88 565.421C1338.92 565.452 1340.85 565.408 1342.89 565.354Z" fill="#61ECFF"/>
<path d="M1441.92 460.234C1442.08 460.28 1441.97 460.238 1442.22 460.449C1442.32 465.93 1442.2 471.475 1442.24 476.957C1442.25 478.839 1442.06 481.188 1442.14 482.946C1440.95 483.147 1439.78 483.452 1438.63 483.767C1419.81 488.924 1403.84 501.329 1394.26 518.232C1386.64 531.546 1382.95 549.804 1387.1 564.723C1389.93 575.145 1396.84 584.004 1406.29 589.323C1416.93 595.234 1429.22 596.327 1440.9 593.048C1441 597.582 1441.34 602.096 1441.27 606.657C1441.23 609.524 1441.49 611.47 1440.89 614.313C1435.82 617.547 1426.81 617.475 1420.96 616.846C1389.42 614.761 1363.82 586.51 1362.6 555.72C1362.15 544.262 1364.14 531.275 1368.4 520.681C1376.54 500.4 1392.45 481.008 1411.79 470.404C1420.05 465.879 1432.51 460.728 1441.92 460.234Z" fill="#1082FF"/>
<rect x="-1" y="-5" width="1440" height="898" fill="#2B7FFF" fill-opacity="0.15"/>
</g>
<defs>
<clipPath id="clip0_138_2">
<rect width="1440" height="893" fill="white"/>
</clipPath>
</defs>
</svg>
