<svg width="316" height="220" viewBox="0 0 316 220" fill="none" xmlns="http://www.w3.org/2000/svg">
<g filter="url(#filter0_d_87_5715)">
<path d="M11 64C11 56.268 17.268 50 25 50H87C94.732 50 101 56.268 101 64V176C101 183.732 94.732 190 87 190H25C17.268 190 11 183.732 11 176V64Z" fill="white" shape-rendering="crispEdges"/>
<path d="M21 68C21 63.5817 24.5817 60 29 60C33.4183 60 37 63.5817 37 68C37 72.4183 33.4183 76 29 76C24.5817 76 21 72.4183 21 68Z" fill="#DBEAFE"/>
<g clip-path="url(#clip0_87_5715)">
<path d="M31 66.6667C31 66.1363 30.7893 65.6276 30.4142 65.2525C30.0391 64.8775 29.5304 64.6667 29 64.6667C28.4696 64.6667 27.9609 64.8775 27.5858 65.2525C27.2107 65.6276 27 66.1363 27 66.6667C27 69.0001 26 69.6667 26 69.6667H32C32 69.6667 31 69.0001 31 66.6667Z" stroke="#3B82F6" stroke-width="0.833333"/>
<path d="M29.5762 71C29.5176 71.101 29.4335 71.1849 29.3323 71.2432C29.2311 71.3015 29.1163 71.3322 28.9995 71.3322C28.8827 71.3322 28.768 71.3015 28.6668 71.2432C28.5656 71.1849 28.4815 71.101 28.4229 71" stroke="#3B82F6" stroke-width="0.833333"/>
</g>
<path d="M43 68C43 66.8954 43.8954 66 45 66H81C82.1046 66 83 66.8954 83 68C83 69.1046 82.1046 70 81 70H45C43.8954 70 43 69.1046 43 68Z" fill="#E5E7EB"/>
<path d="M21 94C21 89.5817 24.5817 86 29 86H33C37.4183 86 41 89.5817 41 94V98C41 102.418 37.4183 106 33 106H29C24.5817 106 21 102.418 21 98V94Z" fill="#EEF2FF"/>
<path d="M47 93.5C47 92.6716 47.6716 92 48.5 92H89.5C90.3284 92 91 92.6716 91 93.5C91 94.3284 90.3284 95 89.5 95H48.5C47.6716 95 47 94.3284 47 93.5Z" fill="#E5E7EB"/>
<path d="M47 98.5C47 97.6716 47.6716 97 48.5 97H71.9C72.7284 97 73.4 97.6716 73.4 98.5C73.4 99.3284 72.7284 100 71.9 100H48.5C47.6716 100 47 99.3284 47 98.5Z" fill="#F3F4F6"/>
<path d="M21 120C21 115.582 24.5817 112 29 112H33C37.4183 112 41 115.582 41 120V124C41 128.418 37.4183 132 33 132H29C24.5817 132 21 128.418 21 124V120Z" fill="#EEF2FF"/>
<path d="M47 119.5C47 118.672 47.6716 118 48.5 118H89.5C90.3284 118 91 118.672 91 119.5C91 120.328 90.3284 121 89.5 121H48.5C47.6716 121 47 120.328 47 119.5Z" fill="#E5E7EB"/>
<path d="M47 124.5C47 123.672 47.6716 123 48.5 123H63.1C63.9284 123 64.6 123.672 64.6 124.5C64.6 125.328 63.9284 126 63.1 126H48.5C47.6716 126 47 125.328 47 124.5Z" fill="#F3F4F6"/>
<path d="M21 146C21 141.582 24.5817 138 29 138H33C37.4183 138 41 141.582 41 146V150C41 154.418 37.4183 158 33 158H29C24.5817 158 21 154.418 21 150V146Z" fill="#EEF2FF"/>
<path d="M47 145.5C47 144.672 47.6716 144 48.5 144H89.5C90.3284 144 91 144.672 91 145.5C91 146.328 90.3284 147 89.5 147H48.5C47.6716 147 47 146.328 47 145.5Z" fill="#E5E7EB"/>
<path d="M47 150.5C47 149.672 47.6716 149 48.5 149H76.3C77.1284 149 77.8 149.672 77.8 150.5C77.8 151.328 77.1284 152 76.3 152H48.5C47.6716 152 47 151.328 47 150.5Z" fill="#F3F4F6"/>
<path d="M22.25 174C22.25 170.686 24.9363 168 28.25 168C31.5637 168 34.25 170.686 34.25 174C34.25 177.314 31.5637 180 28.25 180C24.9363 180 22.25 177.314 22.25 174Z" fill="#6366F1"/>
<path d="M40.75 174C40.75 170.686 43.4363 168 46.75 168C50.0637 168 52.75 170.686 52.75 174C52.75 177.314 50.0637 180 46.75 180C43.4363 180 40.75 177.314 40.75 174Z" fill="#E5E7EB"/>
<path d="M59.25 174C59.25 170.686 61.9363 168 65.25 168C68.5637 168 71.25 170.686 71.25 174C71.25 177.314 68.5637 180 65.25 180C61.9363 180 59.25 177.314 59.25 174Z" fill="#E5E7EB"/>
<path d="M77.75 174C77.75 170.686 80.4363 168 83.75 168C87.0637 168 89.75 170.686 89.75 174C89.75 177.314 87.0637 180 83.75 180C80.4363 180 77.75 177.314 77.75 174Z" fill="#E5E7EB"/>
</g>
<g filter="url(#filter1_d_87_5715)">
<mask id="path-19-inside-1_87_5715" fill="white">
<path d="M114 44C114 36.268 120.268 30 128 30H190C197.732 30 204 36.268 204 44V176C204 183.732 197.732 190 190 190H128C120.268 190 114 183.732 114 176V44Z"/>
</mask>
<path d="M114 44C114 36.268 120.268 30 128 30H190C197.732 30 204 36.268 204 44V176C204 183.732 197.732 190 190 190H128C120.268 190 114 183.732 114 176V44Z" fill="white" shape-rendering="crispEdges"/>
<path d="M128 30V30.8H190V30V29.2H128V30ZM204 44H203.2V176H204H204.8V44H204ZM190 190V189.2H128V190V190.8H190V190ZM114 176H114.8V44H114H113.2V176H114ZM128 190V189.2C120.71 189.2 114.8 183.29 114.8 176H114H113.2C113.2 184.174 119.826 190.8 128 190.8V190ZM204 176H203.2C203.2 183.29 197.29 189.2 190 189.2V190V190.8C198.174 190.8 204.8 184.174 204.8 176H204ZM190 30V30.8C197.29 30.8 203.2 36.7098 203.2 44H204H204.8C204.8 35.8262 198.174 29.2 190 29.2V30ZM128 30V29.2C119.826 29.2 113.2 35.8262 113.2 44H114H114.8C114.8 36.7098 120.71 30.8 128 30.8V30Z" fill="#6366F1" fill-opacity="0.15" mask="url(#path-19-inside-1_87_5715)"/>
<path d="M119.8 50.8C119.8 45.2772 124.277 40.8 129.8 40.8C135.323 40.8 139.8 45.2772 139.8 50.8C139.8 56.3229 135.323 60.8 129.8 60.8C124.277 60.8 119.8 56.3229 119.8 50.8Z" fill="#6366F1"/>
<path d="M125.8 50.8C125.8 48.5909 127.591 46.8 129.8 46.8C132.009 46.8 133.8 48.5909 133.8 50.8C133.8 53.0092 132.009 54.8 129.8 54.8C127.591 54.8 125.8 53.0092 125.8 50.8Z" fill="white" fill-opacity="0.6"/>
<path d="M178.2 50.8C178.2 45.2772 182.677 40.8 188.2 40.8C193.723 40.8 198.2 45.2772 198.2 50.8C198.2 56.3229 193.723 60.8 188.2 60.8C182.677 60.8 178.2 56.3229 178.2 50.8Z" fill="#C7D2FE"/>
<path d="M119.8 78.8001C119.8 73.2772 124.277 68.8 129.8 68.8H188.2C193.723 68.8 198.2 73.2772 198.2 78.8V133.2C198.2 138.723 193.723 143.2 188.2 143.2H129.8C124.277 143.2 119.8 138.723 119.8 133.2V78.8001Z" fill="url(#paint0_linear_87_5715)"/>
<path opacity="0.2" d="M159 96C153.48 96 149 100.48 149 106C149 111.52 153.48 116 159 116C164.52 116 169 111.52 169 106C169 100.48 164.52 96 159 96Z" fill="#6366F1"/>
<path d="M155 108C155 108 156.5 110 159 110C161.5 110 163 108 163 108" stroke="#6366F1" stroke-width="1.5" stroke-linecap="round"/>
<path d="M156 105C156.552 105 157 104.552 157 104C157 103.448 156.552 103 156 103C155.448 103 155 103.448 155 104C155 104.552 155.448 105 156 105Z" fill="#6366F1"/>
<path d="M162 105C162.552 105 163 104.552 163 104C163 103.448 162.552 103 162 103C161.448 103 161 103.448 161 104C161 104.552 161.448 105 162 105Z" fill="#6366F1"/>
<path d="M119.8 161.2C119.8 155.677 124.277 151.2 129.8 151.2H188.2C193.723 151.2 198.2 155.677 198.2 161.2V169.2C198.2 174.723 193.723 179.2 188.2 179.2H129.8C124.277 179.2 119.8 174.723 119.8 169.2V161.2Z" fill="#6366F1"/>
<path d="M139 165.2C139 164.096 139.895 163.2 141 163.2H177C178.105 163.2 179 164.096 179 165.2C179 166.305 178.105 167.2 177 167.2H141C139.895 167.2 139 166.305 139 165.2Z" fill="white" fill-opacity="0.5"/>
</g>
<g filter="url(#filter2_d_87_5715)">
<path d="M217 64C217 56.268 223.268 50 231 50H293C300.732 50 307 56.268 307 64V176C307 183.732 300.732 190 293 190H231C223.268 190 217 183.732 217 176V64Z" fill="white" shape-rendering="crispEdges"/>
<path d="M227 68C227 63.5817 230.582 60 235 60C239.418 60 243 63.5817 243 68C243 72.4183 239.418 76 235 76C230.582 76 227 72.4183 227 68Z" fill="#DCFCE7"/>
<path d="M249 68C249 66.8954 249.895 66 251 66H287C288.105 66 289 66.8954 289 68C289 69.1046 288.105 70 287 70H251C249.895 70 249 69.1046 249 68Z" fill="#E5E7EB"/>
<path d="M231 137.537C231 135.805 232.405 134.4 234.138 134.4C235.87 134.4 237.275 135.805 237.275 137.537V168H231V137.537Z" fill="#E0E7FF"/>
<path d="M240.275 116.544C240.275 114.807 241.683 113.4 243.419 113.4C245.155 113.4 246.563 114.807 246.563 116.544V168H240.275V116.544Z" fill="#E0E7FF"/>
<path d="M249.562 129.144C249.562 127.408 250.97 126 252.706 126C254.442 126 255.85 127.408 255.85 129.144V168H249.562V129.144Z" fill="#E0E7FF"/>
<path d="M258.85 103.944C258.85 102.208 260.257 100.8 261.993 100.8C263.73 100.8 265.137 102.208 265.137 103.944V168H258.85V103.944Z" fill="#E0E7FF"/>
<path d="M268.138 120.744C268.138 119.008 269.545 117.6 271.281 117.6C273.018 117.6 274.425 119.008 274.425 120.744V168H268.138V120.744Z" fill="#E0E7FF"/>
<path d="M277.425 95.5436C277.425 93.8074 278.832 92.3999 280.569 92.3999C282.305 92.3999 283.712 93.8074 283.712 95.5437V168H277.425V95.5436Z" fill="#6366F1"/>
<path d="M286.713 112.344C286.713 110.607 288.12 109.2 289.857 109.2C291.593 109.2 293 110.607 293 112.344V168H286.713V112.344Z" fill="#E0E7FF"/>
<path d="M227 178C227 176.895 227.895 176 229 176H273C274.105 176 275 176.895 275 178C275 179.105 274.105 180 273 180H229C227.895 180 227 179.105 227 178Z" fill="#E5E7EB"/>
</g>
<defs>
<filter id="filter0_d_87_5715" x="8" y="48" width="96" height="146" filterUnits="userSpaceOnUse" color-interpolation-filters="sRGB">
<feFlood flood-opacity="0" result="BackgroundImageFix"/>
<feColorMatrix in="SourceAlpha" type="matrix" values="0 0 0 0 0 0 0 0 0 0 0 0 0 0 0 0 0 0 127 0" result="hardAlpha"/>
<feOffset dy="1"/>
<feGaussianBlur stdDeviation="1.5"/>
<feComposite in2="hardAlpha" operator="out"/>
<feColorMatrix type="matrix" values="0 0 0 0 0.109804 0 0 0 0 0.223529 0 0 0 0 0.556863 0 0 0 0.05 0"/>
<feBlend mode="normal" in2="BackgroundImageFix" result="effect1_dropShadow_87_5715"/>
<feBlend mode="normal" in="SourceGraphic" in2="effect1_dropShadow_87_5715" result="shape"/>
</filter>
<filter id="filter1_d_87_5715" x="108" y="26" width="102" height="172" filterUnits="userSpaceOnUse" color-interpolation-filters="sRGB">
<feFlood flood-opacity="0" result="BackgroundImageFix"/>
<feColorMatrix in="SourceAlpha" type="matrix" values="0 0 0 0 0 0 0 0 0 0 0 0 0 0 0 0 0 0 127 0" result="hardAlpha"/>
<feOffset dy="2"/>
<feGaussianBlur stdDeviation="3"/>
<feComposite in2="hardAlpha" operator="out"/>
<feColorMatrix type="matrix" values="0 0 0 0 0.109804 0 0 0 0 0.223529 0 0 0 0 0.556863 0 0 0 0.08 0"/>
<feBlend mode="normal" in2="BackgroundImageFix" result="effect1_dropShadow_87_5715"/>
<feBlend mode="normal" in="SourceGraphic" in2="effect1_dropShadow_87_5715" result="shape"/>
</filter>
<filter id="filter2_d_87_5715" x="214" y="48" width="96" height="146" filterUnits="userSpaceOnUse" color-interpolation-filters="sRGB">
<feFlood flood-opacity="0" result="BackgroundImageFix"/>
<feColorMatrix in="SourceAlpha" type="matrix" values="0 0 0 0 0 0 0 0 0 0 0 0 0 0 0 0 0 0 127 0" result="hardAlpha"/>
<feOffset dy="1"/>
<feGaussianBlur stdDeviation="1.5"/>
<feComposite in2="hardAlpha" operator="out"/>
<feColorMatrix type="matrix" values="0 0 0 0 0.109804 0 0 0 0 0.223529 0 0 0 0 0.556863 0 0 0 0.05 0"/>
<feBlend mode="normal" in2="BackgroundImageFix" result="effect1_dropShadow_87_5715"/>
<feBlend mode="normal" in="SourceGraphic" in2="effect1_dropShadow_87_5715" result="shape"/>
</filter>
<linearGradient id="paint0_linear_87_5715" x1="159" y1="68.8" x2="159" y2="143.2" gradientUnits="userSpaceOnUse">
<stop stop-color="#DBEAFE"/>
<stop offset="0.1" stop-color="#DDEAFE"/>
<stop offset="0.2" stop-color="#DFEAFE"/>
<stop offset="0.3" stop-color="#E0EAFE"/>
<stop offset="0.4" stop-color="#E2EAFE"/>
<stop offset="0.5" stop-color="#E4EAFE"/>
<stop offset="0.6" stop-color="#E6E9FE"/>
<stop offset="0.7" stop-color="#E8E9FE"/>
<stop offset="0.8" stop-color="#E9E9FE"/>
<stop offset="0.9" stop-color="#EBE9FE"/>
<stop offset="1" stop-color="#EDE9FE"/>
</linearGradient>
<clipPath id="clip0_87_5715">
<rect width="8" height="8" fill="white" transform="translate(25 64)"/>
</clipPath>
</defs>
</svg>
