<svg width="220" height="191" viewBox="0 0 220 191" fill="none" xmlns="http://www.w3.org/2000/svg">
<g filter="url(#filter0_dd_77_568)">
<g clip-path="url(#clip0_77_568)">
<path d="M12 23C12 15.268 18.268 9 26 9H153C160.732 9 167 15.268 167 23V111.8C167 119.532 160.732 125.8 153 125.8H26C18.268 125.8 12 119.532 12 111.8V23Z" fill="white"/>
<mask id="path-2-inside-1_77_568" fill="white">
<path d="M12 9H167V27.8H12V9Z"/>
</mask>
<path d="M12 9H167V27.8H12V9Z" fill="#F9FAFB"/>
<path d="M167 27.8V27H12V27.8V28.6H167V27.8Z" fill="#F3F4F6" mask="url(#path-2-inside-1_77_568)"/>
<path d="M22 18C22 16.3431 23.3431 15 25 15C26.6569 15 28 16.3431 28 18C28 19.6569 26.6569 21 25 21C23.3431 21 22 19.6569 22 18Z" fill="#FF6467"/>
<path d="M32 18C32 16.3431 33.3431 15 35 15C36.6569 15 38 16.3431 38 18C38 19.6569 36.6569 21 35 21C33.3431 21 32 19.6569 32 18Z" fill="#FDC700"/>
<path d="M42 18C42 16.3431 43.3431 15 45 15C46.6569 15 48 16.3431 48 18C48 19.6569 46.6569 21 45 21C43.3431 21 42 19.6569 42 18Z" fill="#05DF72"/>
<path d="M60 18C60 16.3431 61.3431 15 63 15H121C122.657 15 124 16.3431 124 18C124 19.6569 122.657 21 121 21H63C61.3431 21 60 19.6569 60 18Z" fill="#E5E7EB"/>
<path d="M22 41.8C22 39.5909 23.7909 37.8 26 37.8H153C155.209 37.8 157 39.5909 157 41.8V65.8C157 68.0092 155.209 69.8 153 69.8H26C23.7909 69.8 22 68.0092 22 65.8V41.8Z" fill="url(#paint0_linear_77_568)"/>
<path d="M65.5 53.8C65.5 52.6955 66.3954 51.8 67.5 51.8H111.5C112.605 51.8 113.5 52.6955 113.5 53.8C113.5 54.9046 112.605 55.8 111.5 55.8H67.5C66.3954 55.8 65.5 54.9046 65.5 53.8Z" fill="white" fill-opacity="0.6"/>
<path d="M22 81.8C22 79.5909 23.7909 77.8 26 77.8H59C61.2091 77.8 63 79.5909 63 81.8V97.8C63 100.009 61.2091 101.8 59 101.8H26C23.7909 101.8 22 100.009 22 97.8V81.8Z" fill="#F3F4F6"/>
<path d="M69 81.8C69 79.5909 70.7909 77.8 73 77.8H106C108.209 77.8 110 79.5909 110 81.8V97.8C110 100.009 108.209 101.8 106 101.8H73C70.7909 101.8 69 100.009 69 97.8V81.8Z" fill="#F3F4F6"/>
<path d="M116 81.8C116 79.5909 117.791 77.8 120 77.8H153C155.209 77.8 157 79.5909 157 81.8V97.8C157 100.009 155.209 101.8 153 101.8H120C117.791 101.8 116 100.009 116 97.8V81.8Z" fill="#F3F4F6"/>
<path d="M22 112.8C22 111.143 23.3431 109.8 25 109.8H99C100.657 109.8 102 111.143 102 112.8C102 114.457 100.657 115.8 99 115.8H25C23.3431 115.8 22 114.457 22 112.8Z" fill="#F3F4F6"/>
</g>
</g>
<g filter="url(#filter1_dd_77_568)">
<g clip-path="url(#clip1_77_568)">
<mask id="path-14-inside-2_77_568" fill="white">
<path d="M145 107.4C145 101.877 149.477 97.3999 155 97.3999H190C195.523 97.3999 200 101.877 200 107.4V141C200 146.523 195.523 151 190 151H155C149.477 151 145 146.523 145 141V107.4Z"/>
</mask>
<path d="M145 107.4C145 101.877 149.477 97.3999 155 97.3999H190C195.523 97.3999 200 101.877 200 107.4V141C200 146.523 195.523 151 190 151H155C149.477 151 145 146.523 145 141V107.4Z" fill="white"/>
<rect width="53.4" height="6" transform="translate(145.8 98.2)" fill="#F9FAFB"/>
<path d="M164.5 101.2C164.5 100.648 164.948 100.2 165.5 100.2H179.5C180.052 100.2 180.5 100.648 180.5 101.2C180.5 101.752 180.052 102.2 179.5 102.2H165.5C164.948 102.2 164.5 101.752 164.5 101.2Z" fill="#D1D5DC"/>
<path d="M151.8 116.2C151.8 112.886 154.486 110.2 157.8 110.2H187.2C190.514 110.2 193.2 112.886 193.2 116.2V124.2C193.2 127.514 190.514 130.2 187.2 130.2H157.8C154.486 130.2 151.8 127.514 151.8 124.2V116.2Z" fill="url(#paint1_linear_77_568)"/>
<path d="M151.8 136.2C151.8 135.095 152.695 134.2 153.8 134.2H181.8C182.904 134.2 183.8 135.095 183.8 136.2C183.8 137.305 182.904 138.2 181.8 138.2H153.8C152.695 138.2 151.8 137.305 151.8 136.2Z" fill="#F3F4F6"/>
<path d="M151.8 142.2C151.8 141.095 152.695 140.2 153.8 140.2H173.8C174.904 140.2 175.8 141.095 175.8 142.2C175.8 143.305 174.904 144.2 173.8 144.2H153.8C152.695 144.2 151.8 143.305 151.8 142.2Z" fill="#F3F4F6"/>
</g>
<path d="M155 97.3999V98.1999H190V97.3999V96.5999H155V97.3999ZM200 107.4H199.2V141H200H200.8V107.4H200ZM190 151V150.2H155V151V151.8H190V151ZM145 141H145.8V107.4H145H144.2V141H145ZM155 151V150.2C149.919 150.2 145.8 146.081 145.8 141H145H144.2C144.2 146.965 149.035 151.8 155 151.8V151ZM200 141H199.2C199.2 146.081 195.081 150.2 190 150.2V151V151.8C195.965 151.8 200.8 146.965 200.8 141H200ZM190 97.3999V98.1999C195.081 98.1999 199.2 102.319 199.2 107.4H200H200.8C200.8 101.435 195.965 96.5999 190 96.5999V97.3999ZM155 97.3999V96.5999C149.035 96.5999 144.2 101.435 144.2 107.4H145H145.8C145.8 102.319 149.919 98.1999 155 98.1999V97.3999Z" fill="#F3F4F6" mask="url(#path-14-inside-2_77_568)"/>
</g>
<g filter="url(#filter2_dd_77_568)">
<path d="M122.263 11C122.263 5.47715 126.74 1 132.263 1H182C187.523 1 192 5.47715 192 11V13.5C192 19.0228 187.523 23.5 182 23.5H132.263C126.74 23.5 122.263 19.0228 122.263 13.5V11Z" fill="white" shape-rendering="crispEdges"/>
<g clip-path="url(#clip2_77_568)">
<path d="M138.596 8.5H131.929C131.469 8.5 131.096 8.8731 131.096 9.33333V13.5C131.096 13.9602 131.469 14.3333 131.929 14.3333H138.596C139.056 14.3333 139.429 13.9602 139.429 13.5V9.33333C139.429 8.8731 139.056 8.5 138.596 8.5Z" stroke="#3B82F6" stroke-width="0.833333"/>
<path d="M133.596 15.9999H136.929M135.262 14.3333V15.9999" stroke="#3B82F6" stroke-width="0.833333" stroke-linecap="round"/>
</g>
<path d="M144.843 14.8V9.70914H146.852C147.236 9.70914 147.564 9.77791 147.836 9.91546C148.11 10.0514 148.318 10.2444 148.46 10.4947C148.604 10.7432 148.676 11.0357 148.676 11.3721C148.676 11.7102 148.604 12.001 148.458 12.2447C148.312 12.4866 148.101 12.6722 147.824 12.8015C147.549 12.9307 147.216 12.9954 146.825 12.9954H145.48V12.1303H146.651C146.856 12.1303 147.027 12.1021 147.163 12.0458C147.298 11.9894 147.4 11.9049 147.466 11.7922C147.534 11.6795 147.568 11.5395 147.568 11.3721C147.568 11.2031 147.534 11.0606 147.466 10.9446C147.4 10.8286 147.298 10.7407 147.16 10.6811C147.024 10.6198 146.853 10.5891 146.646 10.5891H145.92V14.8H144.843ZM147.593 12.4833L148.858 14.8H147.67L146.432 12.4833H147.593ZM151.096 14.8746C150.703 14.8746 150.365 14.7951 150.082 14.636C149.8 14.4752 149.583 14.2482 149.43 13.9549C149.278 13.6599 149.202 13.3111 149.202 12.9084C149.202 12.5156 149.278 12.1709 149.43 11.8743C149.583 11.5776 149.797 11.3465 150.074 11.1807C150.352 11.015 150.679 10.9322 151.053 10.9322C151.305 10.9322 151.54 10.9728 151.757 11.054C151.976 11.1335 152.166 11.2536 152.329 11.4144C152.493 11.5751 152.62 11.7773 152.712 12.0209C152.803 12.2629 152.848 12.5463 152.848 12.8711V13.1619H149.624V12.5057H151.851C151.851 12.3532 151.818 12.2181 151.752 12.1005C151.686 11.9828 151.594 11.8908 151.476 11.8246C151.36 11.7566 151.225 11.7226 151.071 11.7226C150.91 11.7226 150.768 11.7599 150.643 11.8345C150.521 11.9074 150.425 12.006 150.355 12.1303C150.285 12.2529 150.25 12.3897 150.248 12.5405V13.1644C150.248 13.3533 150.283 13.5165 150.352 13.6541C150.424 13.7916 150.524 13.8977 150.653 13.9723C150.783 14.0469 150.936 14.0841 151.113 14.0841C151.231 14.0841 151.339 14.0676 151.436 14.0344C151.534 14.0013 151.618 13.9516 151.687 13.8853C151.757 13.819 151.81 13.7378 151.846 13.6417L152.826 13.7063C152.776 13.9416 152.674 14.1471 152.52 14.3228C152.368 14.4968 152.17 14.6327 151.928 14.7304C151.688 14.8266 151.411 14.8746 151.096 14.8746ZM156.716 12.0706L155.747 12.1303C155.73 12.0474 155.694 11.9729 155.64 11.9066C155.585 11.8386 155.513 11.7848 155.424 11.745C155.336 11.7036 155.23 11.6829 155.108 11.6829C154.944 11.6829 154.805 11.7177 154.693 11.7873C154.58 11.8552 154.524 11.9464 154.524 12.0607C154.524 12.1518 154.56 12.2289 154.633 12.2919C154.706 12.3549 154.831 12.4054 155.008 12.4435L155.699 12.5827C156.071 12.659 156.347 12.7816 156.53 12.9506C156.712 13.1197 156.803 13.3417 156.803 13.6168C156.803 13.867 156.729 14.0866 156.582 14.2755C156.436 14.4645 156.236 14.612 155.98 14.718C155.727 14.8224 155.434 14.8746 155.103 14.8746C154.597 14.8746 154.195 14.7694 153.895 14.5589C153.596 14.3468 153.422 14.0585 153.37 13.6939L154.412 13.6392C154.443 13.7933 154.52 13.911 154.64 13.9922C154.761 14.0717 154.916 14.1115 155.105 14.1115C155.291 14.1115 155.44 14.0759 155.553 14.0046C155.667 13.9317 155.725 13.838 155.727 13.7237C155.725 13.6276 155.685 13.5489 155.605 13.4875C155.525 13.4246 155.403 13.3765 155.237 13.3434L154.576 13.2116C154.203 13.1371 153.925 13.0078 153.743 12.8238C153.562 12.6399 153.472 12.4054 153.472 12.1204C153.472 11.8751 153.538 11.6638 153.671 11.4865C153.805 11.3092 153.993 11.1724 154.235 11.0763C154.479 10.9802 154.764 10.9322 155.09 10.9322C155.573 10.9322 155.952 11.0341 156.229 11.2379C156.507 11.4417 156.67 11.7193 156.716 12.0706ZM157.47 16.2319V10.9819H158.514V11.6232H158.561C158.608 11.5205 158.675 11.4161 158.763 11.31C158.852 11.2023 158.968 11.1128 159.111 11.0415C159.255 10.9686 159.434 10.9322 159.648 10.9322C159.926 10.9322 160.183 11.0051 160.418 11.1509C160.653 11.2951 160.842 11.513 160.982 11.8047C161.123 12.0947 161.194 12.4584 161.194 12.8959C161.194 13.3218 161.125 13.6814 160.987 13.9748C160.851 14.2664 160.666 14.4877 160.431 14.6385C160.197 14.7876 159.935 14.8622 159.645 14.8622C159.44 14.8622 159.265 14.8282 159.121 14.7603C158.978 14.6923 158.861 14.607 158.77 14.5042C158.679 14.3998 158.609 14.2946 158.561 14.1885H158.529V16.2319H157.47ZM158.507 12.891C158.507 13.118 158.538 13.316 158.601 13.4851C158.664 13.6541 158.755 13.7858 158.874 13.8803C158.994 13.9731 159.139 14.0195 159.309 14.0195C159.482 14.0195 159.628 13.9723 159.747 13.8778C159.866 13.7817 159.957 13.6491 160.018 13.4801C160.081 13.3094 160.112 13.113 160.112 12.891C160.112 12.6706 160.082 12.4767 160.02 12.3093C159.959 12.1419 159.869 12.011 159.749 11.9165C159.63 11.8221 159.483 11.7748 159.309 11.7748C159.137 11.7748 158.991 11.8204 158.872 11.9116C158.754 12.0027 158.664 12.132 158.601 12.2993C158.538 12.4667 158.507 12.6639 158.507 12.891ZM163.625 14.8746C163.239 14.8746 162.905 14.7926 162.623 14.6285C162.343 14.4628 162.127 14.2325 161.974 13.9375C161.822 13.6408 161.746 13.297 161.746 12.9059C161.746 12.5115 161.822 12.1668 161.974 11.8718C162.127 11.5751 162.343 11.3448 162.623 11.1807C162.905 11.015 163.239 10.9322 163.625 10.9322C164.011 10.9322 164.344 11.015 164.624 11.1807C164.906 11.3448 165.123 11.5751 165.275 11.8718C165.428 12.1668 165.504 12.5115 165.504 12.9059C165.504 13.297 165.428 13.6408 165.275 13.9375C165.123 14.2325 164.906 14.4628 164.624 14.6285C164.344 14.7926 164.011 14.8746 163.625 14.8746ZM163.63 14.0543C163.805 14.0543 163.952 14.0046 164.07 13.9052C164.187 13.8041 164.276 13.6665 164.336 13.4925C164.397 13.3185 164.428 13.1205 164.428 12.8984C164.428 12.6764 164.397 12.4783 164.336 12.3043C164.276 12.1303 164.187 11.9928 164.07 11.8917C163.952 11.7906 163.805 11.74 163.63 11.74C163.452 11.74 163.303 11.7906 163.182 11.8917C163.063 11.9928 162.973 12.1303 162.911 12.3043C162.852 12.4783 162.822 12.6764 162.822 12.8984C162.822 13.1205 162.852 13.3185 162.911 13.4925C162.973 13.6665 163.063 13.8041 163.182 13.9052C163.303 14.0046 163.452 14.0543 163.63 14.0543ZM167.252 12.5927V14.8H166.193V10.9819H167.202V11.6555H167.247C167.331 11.4335 167.473 11.2578 167.672 11.1285C167.871 10.9976 168.112 10.9322 168.395 10.9322C168.66 10.9322 168.891 10.9902 169.089 11.1062C169.286 11.2222 169.439 11.3879 169.548 11.6033C169.658 11.8171 169.712 12.0723 169.712 12.3689V14.8H168.654V12.5579C168.655 12.3242 168.596 12.1419 168.475 12.011C168.354 11.8784 168.187 11.8121 167.975 11.8121C167.832 11.8121 167.706 11.8428 167.597 11.9041C167.489 11.9654 167.405 12.0549 167.344 12.1726C167.284 12.2886 167.253 12.4286 167.252 12.5927ZM173.724 12.0706L172.754 12.1303C172.738 12.0474 172.702 11.9729 172.648 11.9066C172.593 11.8386 172.521 11.7848 172.431 11.745C172.343 11.7036 172.238 11.6829 172.116 11.6829C171.952 11.6829 171.813 11.7177 171.701 11.7873C171.588 11.8552 171.531 11.9464 171.531 12.0607C171.531 12.1518 171.568 12.2289 171.641 12.2919C171.714 12.3549 171.839 12.4054 172.016 12.4435L172.707 12.5827C173.078 12.659 173.355 12.7816 173.538 12.9506C173.72 13.1197 173.811 13.3417 173.811 13.6168C173.811 13.867 173.737 14.0866 173.59 14.2755C173.444 14.4645 173.243 14.612 172.988 14.718C172.735 14.8224 172.442 14.8746 172.111 14.8746C171.605 14.8746 171.203 14.7694 170.903 14.5589C170.604 14.3468 170.429 14.0585 170.378 13.6939L171.42 13.6392C171.451 13.7933 171.527 13.911 171.648 13.9922C171.769 14.0717 171.924 14.1115 172.113 14.1115C172.299 14.1115 172.448 14.0759 172.561 14.0046C172.675 13.9317 172.733 13.838 172.735 13.7237C172.733 13.6276 172.692 13.5489 172.613 13.4875C172.533 13.4246 172.411 13.3765 172.245 13.3434L171.584 13.2116C171.211 13.1371 170.933 13.0078 170.751 12.8238C170.57 12.6399 170.48 12.4054 170.48 12.1204C170.48 11.8751 170.546 11.6638 170.679 11.4865C170.813 11.3092 171.001 11.1724 171.243 11.0763C171.487 10.9802 171.772 10.9322 172.098 10.9322C172.58 10.9322 172.96 11.0341 173.237 11.2379C173.515 11.4417 173.678 11.7193 173.724 12.0706ZM174.478 14.8V10.9819H175.537V14.8H174.478ZM175.01 10.4897C174.852 10.4897 174.717 10.4375 174.605 10.3331C174.494 10.227 174.438 10.1002 174.438 9.95275C174.438 9.80691 174.494 9.6818 174.605 9.57739C174.717 9.47133 174.852 9.4183 175.01 9.4183C175.167 9.4183 175.301 9.47133 175.412 9.57739C175.525 9.6818 175.581 9.80691 175.581 9.95275C175.581 10.1002 175.525 10.227 175.412 10.3331C175.301 10.4375 175.167 10.4897 175.01 10.4897ZM179.945 10.9819L178.61 14.8H177.417L176.082 10.9819H177.2L177.993 13.7138H178.033L178.824 10.9819H179.945ZM182.104 14.8746C181.711 14.8746 181.373 14.7951 181.089 14.636C180.808 14.4752 180.591 14.2482 180.438 13.9549C180.286 13.6599 180.209 13.3111 180.209 12.9084C180.209 12.5156 180.286 12.1709 180.438 11.8743C180.591 11.5776 180.805 11.3465 181.082 11.1807C181.36 11.015 181.687 10.9322 182.061 10.9322C182.313 10.9322 182.548 10.9728 182.765 11.054C182.984 11.1335 183.174 11.2536 183.337 11.4144C183.501 11.5751 183.628 11.7773 183.719 12.0209C183.81 12.2629 183.856 12.5463 183.856 12.8711V13.1619H180.632V12.5057H182.859C182.859 12.3532 182.826 12.2181 182.76 12.1005C182.694 11.9828 182.602 11.8908 182.484 11.8246C182.368 11.7566 182.233 11.7226 182.079 11.7226C181.918 11.7226 181.775 11.7599 181.651 11.8345C181.529 11.9074 181.432 12.006 181.363 12.1303C181.293 12.2529 181.258 12.3897 181.256 12.5405V13.1644C181.256 13.3533 181.291 13.5165 181.36 13.6541C181.432 13.7916 181.532 13.8977 181.661 13.9723C181.79 14.0469 181.944 14.0841 182.121 14.0841C182.239 14.0841 182.346 14.0676 182.444 14.0344C182.542 14.0013 182.626 13.9516 182.695 13.8853C182.765 13.819 182.818 13.7378 182.854 13.6417L183.834 13.7063C183.784 13.9416 183.682 14.1471 183.528 14.3228C183.375 14.4968 183.178 14.6327 182.936 14.7304C182.696 14.8266 182.418 14.8746 182.104 14.8746Z" fill="#155DFC"/>
</g>
<defs>
<filter id="filter0_dd_77_568" x="0" y="7" width="179" height="140.8" filterUnits="userSpaceOnUse" color-interpolation-filters="sRGB">
<feFlood flood-opacity="0" result="BackgroundImageFix"/>
<feColorMatrix in="SourceAlpha" type="matrix" values="0 0 0 0 0 0 0 0 0 0 0 0 0 0 0 0 0 0 127 0" result="hardAlpha"/>
<feMorphology radius="4" operator="erode" in="SourceAlpha" result="effect1_dropShadow_77_568"/>
<feOffset dy="4"/>
<feGaussianBlur stdDeviation="3"/>
<feComposite in2="hardAlpha" operator="out"/>
<feColorMatrix type="matrix" values="0 0 0 0 0.109804 0 0 0 0 0.223529 0 0 0 0 0.556863 0 0 0 0.05 0"/>
<feBlend mode="normal" in2="BackgroundImageFix" result="effect1_dropShadow_77_568"/>
<feColorMatrix in="SourceAlpha" type="matrix" values="0 0 0 0 0 0 0 0 0 0 0 0 0 0 0 0 0 0 127 0" result="hardAlpha"/>
<feMorphology radius="3" operator="erode" in="SourceAlpha" result="effect2_dropShadow_77_568"/>
<feOffset dy="10"/>
<feGaussianBlur stdDeviation="7.5"/>
<feComposite in2="hardAlpha" operator="out"/>
<feColorMatrix type="matrix" values="0 0 0 0 0.109804 0 0 0 0 0.223529 0 0 0 0 0.556863 0 0 0 0.05 0"/>
<feBlend mode="normal" in2="effect1_dropShadow_77_568" result="effect2_dropShadow_77_568"/>
<feBlend mode="normal" in="SourceGraphic" in2="effect2_dropShadow_77_568" result="shape"/>
</filter>
<filter id="filter1_dd_77_568" x="125" y="97.3999" width="95" height="93.6001" filterUnits="userSpaceOnUse" color-interpolation-filters="sRGB">
<feFlood flood-opacity="0" result="BackgroundImageFix"/>
<feColorMatrix in="SourceAlpha" type="matrix" values="0 0 0 0 0 0 0 0 0 0 0 0 0 0 0 0 0 0 127 0" result="hardAlpha"/>
<feMorphology radius="6" operator="erode" in="SourceAlpha" result="effect1_dropShadow_77_568"/>
<feOffset dy="8"/>
<feGaussianBlur stdDeviation="5"/>
<feComposite in2="hardAlpha" operator="out"/>
<feColorMatrix type="matrix" values="0 0 0 0 0.109804 0 0 0 0 0.223529 0 0 0 0 0.556863 0 0 0 0.1 0"/>
<feBlend mode="normal" in2="BackgroundImageFix" result="effect1_dropShadow_77_568"/>
<feColorMatrix in="SourceAlpha" type="matrix" values="0 0 0 0 0 0 0 0 0 0 0 0 0 0 0 0 0 0 127 0" result="hardAlpha"/>
<feMorphology radius="5" operator="erode" in="SourceAlpha" result="effect2_dropShadow_77_568"/>
<feOffset dy="20"/>
<feGaussianBlur stdDeviation="12.5"/>
<feComposite in2="hardAlpha" operator="out"/>
<feColorMatrix type="matrix" values="0 0 0 0 0.109804 0 0 0 0 0.223529 0 0 0 0 0.556863 0 0 0 0.1 0"/>
<feBlend mode="normal" in2="effect1_dropShadow_77_568" result="effect2_dropShadow_77_568"/>
<feBlend mode="normal" in="SourceGraphic" in2="effect2_dropShadow_77_568" result="shape"/>
</filter>
<filter id="filter2_dd_77_568" x="117.263" y="0" width="79.7373" height="32.5" filterUnits="userSpaceOnUse" color-interpolation-filters="sRGB">
<feFlood flood-opacity="0" result="BackgroundImageFix"/>
<feColorMatrix in="SourceAlpha" type="matrix" values="0 0 0 0 0 0 0 0 0 0 0 0 0 0 0 0 0 0 127 0" result="hardAlpha"/>
<feMorphology radius="2" operator="erode" in="SourceAlpha" result="effect1_dropShadow_77_568"/>
<feOffset dy="2"/>
<feGaussianBlur stdDeviation="2"/>
<feComposite in2="hardAlpha" operator="out"/>
<feColorMatrix type="matrix" values="0 0 0 0 0 0 0 0 0 0 0 0 0 0 0 0 0 0 0.1 0"/>
<feBlend mode="normal" in2="BackgroundImageFix" result="effect1_dropShadow_77_568"/>
<feColorMatrix in="SourceAlpha" type="matrix" values="0 0 0 0 0 0 0 0 0 0 0 0 0 0 0 0 0 0 127 0" result="hardAlpha"/>
<feMorphology radius="1" operator="erode" in="SourceAlpha" result="effect2_dropShadow_77_568"/>
<feOffset dy="4"/>
<feGaussianBlur stdDeviation="3"/>
<feComposite in2="hardAlpha" operator="out"/>
<feColorMatrix type="matrix" values="0 0 0 0 0 0 0 0 0 0 0 0 0 0 0 0 0 0 0.1 0"/>
<feBlend mode="normal" in2="effect1_dropShadow_77_568" result="effect2_dropShadow_77_568"/>
<feBlend mode="normal" in="SourceGraphic" in2="effect2_dropShadow_77_568" result="shape"/>
</filter>
<linearGradient id="paint0_linear_77_568" x1="22" y1="53.8" x2="157" y2="53.8" gradientUnits="userSpaceOnUse">
<stop stop-color="#51A2FF"/>
<stop offset="1" stop-color="#615FFF"/>
</linearGradient>
<linearGradient id="paint1_linear_77_568" x1="172.5" y1="110.2" x2="172.5" y2="130.2" gradientUnits="userSpaceOnUse">
<stop stop-color="#51A2FF"/>
<stop offset="1" stop-color="#615FFF"/>
</linearGradient>
<clipPath id="clip0_77_568">
<path d="M12 23C12 15.268 18.268 9 26 9H153C160.732 9 167 15.268 167 23V111.8C167 119.532 160.732 125.8 153 125.8H26C18.268 125.8 12 119.532 12 111.8V23Z" fill="white"/>
</clipPath>
<clipPath id="clip1_77_568">
<path d="M145 107.4C145 101.877 149.477 97.3999 155 97.3999H190C195.523 97.3999 200 101.877 200 107.4V141C200 146.523 195.523 151 190 151H155C149.477 151 145 146.523 145 141V107.4Z" fill="white"/>
</clipPath>
<clipPath id="clip2_77_568">
<rect width="10" height="10" fill="white" transform="translate(130.263 7.25)"/>
</clipPath>
</defs>
</svg>
