<svg width="226" height="184" viewBox="0 0 226 184" fill="none" xmlns="http://www.w3.org/2000/svg">
<g filter="url(#filter0_d_87_5685)">
<path d="M81 22C81 13.1634 88.1634 6 97 6H129C137.837 6 145 13.1634 145 22V54C145 62.8366 137.837 70 129 70H97C88.1634 70 81 62.8366 81 54V22Z" fill="white" shape-rendering="crispEdges"/>
<path d="M109 26H104C102.343 26 101 27.3431 101 29V34C101 35.6569 102.343 37 104 37H109C110.657 37 112 35.6569 112 34V29C112 27.3431 110.657 26 109 26Z" fill="#6366F1"/>
<path d="M122 26H117C115.343 26 114 27.3431 114 29V34C114 35.6569 115.343 37 117 37H122C123.657 37 125 35.6569 125 34V29C125 27.3431 123.657 26 122 26Z" fill="#A5B4FC"/>
<path d="M109 39H104C102.343 39 101 40.3431 101 42V47C101 48.6569 102.343 50 104 50H109C110.657 50 112 48.6569 112 47V42C112 40.3431 110.657 39 109 39Z" fill="#C7D2FE"/>
<path opacity="0.5" d="M122 39H117C115.343 39 114 40.3431 114 42V47C114 48.6569 115.343 50 117 50H122C123.657 50 125 48.6569 125 47V42C125 40.3431 123.657 39 122 39Z" fill="#6366F1"/>
</g>
<g filter="url(#filter1_dd_87_5685)">
<mask id="path-6-inside-1_87_5685" fill="white">
<path d="M27 92C27 86.4772 31.4772 82 37 82H45C50.5228 82 55 86.4772 55 92V100C55 105.523 50.5228 110 45 110H37C31.4772 110 27 105.523 27 100V92Z"/>
</mask>
<path d="M27 92C27 86.4772 31.4772 82 37 82H45C50.5228 82 55 86.4772 55 92V100C55 105.523 50.5228 110 45 110H37C31.4772 110 27 105.523 27 100V92Z" fill="#6366F1"/>
<path d="M37 82V82.8H45V82V81.2H37V82ZM55 92H54.2V100H55H55.8V92H55ZM45 110V109.2H37V110V110.8H45V110ZM27 100H27.8V92H27H26.2V100H27ZM37 110V109.2C31.919 109.2 27.8 105.081 27.8 100H27H26.2C26.2 105.965 31.0353 110.8 37 110.8V110ZM55 100H54.2C54.2 105.081 50.081 109.2 45 109.2V110V110.8C50.9647 110.8 55.8 105.965 55.8 100H55ZM45 82V82.8C50.081 82.8 54.2 86.919 54.2 92H55H55.8C55.8 86.0353 50.9647 81.2 45 81.2V82ZM37 82V81.2C31.0353 81.2 26.2 86.0353 26.2 92H27H27.8C27.8 86.919 31.919 82.8 37 82.8V82Z" fill="white" fill-opacity="0.8" mask="url(#path-6-inside-1_87_5685)"/>
</g>
<g filter="url(#filter2_dd_87_5685)">
<mask id="path-8-inside-2_87_5685" fill="white">
<path d="M63 92C63 86.4772 67.4772 82 73 82H81C86.5228 82 91 86.4772 91 92V100C91 105.523 86.5228 110 81 110H73C67.4772 110 63 105.523 63 100V92Z"/>
</mask>
<path d="M63 92C63 86.4772 67.4772 82 73 82H81C86.5228 82 91 86.4772 91 92V100C91 105.523 86.5228 110 81 110H73C67.4772 110 63 105.523 63 100V92Z" fill="#3B82F6"/>
<path d="M73 82V82.8H81V82V81.2H73V82ZM91 92H90.2V100H91H91.8V92H91ZM81 110V109.2H73V110V110.8H81V110ZM63 100H63.8V92H63H62.2V100H63ZM73 110V109.2C67.919 109.2 63.8 105.081 63.8 100H63H62.2C62.2 105.965 67.0353 110.8 73 110.8V110ZM91 100H90.2C90.2 105.081 86.081 109.2 81 109.2V110V110.8C86.9647 110.8 91.8 105.965 91.8 100H91ZM81 82V82.8C86.081 82.8 90.2 86.919 90.2 92H91H91.8C91.8 86.0353 86.9647 81.2 81 81.2V82ZM73 82V81.2C67.0353 81.2 62.2 86.0353 62.2 92H63H63.8C63.8 86.919 67.919 82.8 73 82.8V82Z" fill="white" fill-opacity="0.8" mask="url(#path-8-inside-2_87_5685)"/>
</g>
<g filter="url(#filter3_dd_87_5685)">
<mask id="path-10-inside-3_87_5685" fill="white">
<path d="M99 92C99 86.4772 103.477 82 109 82H117C122.523 82 127 86.4772 127 92V100C127 105.523 122.523 110 117 110H109C103.477 110 99 105.523 99 100V92Z"/>
</mask>
<path d="M99 92C99 86.4772 103.477 82 109 82H117C122.523 82 127 86.4772 127 92V100C127 105.523 122.523 110 117 110H109C103.477 110 99 105.523 99 100V92Z" fill="#22D3EE"/>
<path d="M109 82V82.8H117V82V81.2H109V82ZM127 92H126.2V100H127H127.8V92H127ZM117 110V109.2H109V110V110.8H117V110ZM99 100H99.8V92H99H98.2V100H99ZM109 110V109.2C103.919 109.2 99.8 105.081 99.8 100H99H98.2C98.2 105.965 103.035 110.8 109 110.8V110ZM127 100H126.2C126.2 105.081 122.081 109.2 117 109.2V110V110.8C122.965 110.8 127.8 105.965 127.8 100H127ZM117 82V82.8C122.081 82.8 126.2 86.919 126.2 92H127H127.8C127.8 86.0353 122.965 81.2 117 81.2V82ZM109 82V81.2C103.035 81.2 98.2 86.0353 98.2 92H99H99.8C99.8 86.919 103.919 82.8 109 82.8V82Z" fill="white" fill-opacity="0.8" mask="url(#path-10-inside-3_87_5685)"/>
</g>
<g filter="url(#filter4_dd_87_5685)">
<mask id="path-12-inside-4_87_5685" fill="white">
<path d="M135 92C135 86.4772 139.477 82 145 82H153C158.523 82 163 86.4772 163 92V100C163 105.523 158.523 110 153 110H145C139.477 110 135 105.523 135 100V92Z"/>
</mask>
<path d="M135 92C135 86.4772 139.477 82 145 82H153C158.523 82 163 86.4772 163 92V100C163 105.523 158.523 110 153 110H145C139.477 110 135 105.523 135 100V92Z" fill="#0F172A"/>
<path d="M145 82V82.8H153V82V81.2H145V82ZM163 92H162.2V100H163H163.8V92H163ZM153 110V109.2H145V110V110.8H153V110ZM135 100H135.8V92H135H134.2V100H135ZM145 110V109.2C139.919 109.2 135.8 105.081 135.8 100H135H134.2C134.2 105.965 139.035 110.8 145 110.8V110ZM163 100H162.2C162.2 105.081 158.081 109.2 153 109.2V110V110.8C158.965 110.8 163.8 105.965 163.8 100H163ZM153 82V82.8C158.081 82.8 162.2 86.919 162.2 92H163H163.8C163.8 86.0353 158.965 81.2 153 81.2V82ZM145 82V81.2C139.035 81.2 134.2 86.0353 134.2 92H135H135.8C135.8 86.919 139.919 82.8 145 82.8V82Z" fill="white" fill-opacity="0.8" mask="url(#path-12-inside-4_87_5685)"/>
</g>
<g filter="url(#filter5_dd_87_5685)">
<mask id="path-14-inside-5_87_5685" fill="white">
<path d="M171 92C171 86.4772 175.477 82 181 82H189C194.523 82 199 86.4772 199 92V100C199 105.523 194.523 110 189 110H181C175.477 110 171 105.523 171 100V92Z"/>
</mask>
<path d="M171 92C171 86.4772 175.477 82 181 82H189C194.523 82 199 86.4772 199 92V100C199 105.523 194.523 110 189 110H181C175.477 110 171 105.523 171 100V92Z" fill="#F1F5F9"/>
<path d="M181 82V82.8H189V82V81.2H181V82ZM199 92H198.2V100H199H199.8V92H199ZM189 110V109.2H181V110V110.8H189V110ZM171 100H171.8V92H171H170.2V100H171ZM181 110V109.2C175.919 109.2 171.8 105.081 171.8 100H171H170.2C170.2 105.965 175.035 110.8 181 110.8V110ZM199 100H198.2C198.2 105.081 194.081 109.2 189 109.2V110V110.8C194.965 110.8 199.8 105.965 199.8 100H199ZM189 82V82.8C194.081 82.8 198.2 86.919 198.2 92H199H199.8C199.8 86.0353 194.965 81.2 189 81.2V82ZM181 82V81.2C175.035 81.2 170.2 86.0353 170.2 92H171H171.8C171.8 86.919 175.919 82.8 181 82.8V82Z" fill="white" fill-opacity="0.8" mask="url(#path-14-inside-5_87_5685)"/>
</g>
<g filter="url(#filter6_d_87_5685)">
<path d="M3 136C3 128.268 9.26801 122 17 122H209C216.732 122 223 128.268 223 136V166C223 173.732 216.732 180 209 180H17C9.26801 180 3 173.732 3 166V136Z" fill="white" shape-rendering="crispEdges"/>
<path d="M17.973 149.6H15.3281L18.7635 139.418H22.0398L25.4751 149.6H22.8303L20.4389 141.984H20.3594L17.973 149.6ZM17.62 145.593H23.1484V147.462H17.62V145.593ZM28.7241 149.729C28.2369 149.729 27.8043 149.648 27.4265 149.486C27.052 149.32 26.7553 149.071 26.5366 148.74C26.3211 148.405 26.2134 147.986 26.2134 147.482C26.2134 147.058 26.288 146.7 26.4371 146.408C26.5863 146.117 26.7918 145.88 27.0536 145.697C27.3155 145.515 27.6171 145.378 27.9585 145.285C28.2998 145.189 28.6644 145.124 29.0522 145.091C29.4864 145.051 29.8361 145.01 30.1012 144.967C30.3664 144.92 30.5586 144.856 30.6779 144.773C30.8005 144.687 30.8619 144.566 30.8619 144.41V144.385C30.8619 144.13 30.774 143.932 30.5984 143.793C30.4227 143.654 30.1857 143.584 29.8874 143.584C29.5659 143.584 29.3074 143.654 29.1119 143.793C28.9163 143.932 28.792 144.125 28.739 144.37L26.4968 144.29C26.5631 143.826 26.7338 143.412 27.0089 143.048C27.2873 142.68 27.6684 142.391 28.1523 142.182C28.6396 141.97 29.2246 141.864 29.9073 141.864C30.3945 141.864 30.8436 141.922 31.2546 142.038C31.6656 142.151 32.0236 142.317 32.3285 142.535C32.6334 142.751 32.8687 143.016 33.0344 143.331C33.2035 143.646 33.288 144.005 33.288 144.41V149.6H31.0011V148.536H30.9414C30.8055 148.795 30.6315 149.013 30.4194 149.192C30.2106 149.371 29.9637 149.506 29.6786 149.595C29.3969 149.685 29.0787 149.729 28.7241 149.729ZM29.4748 148.138C29.7366 148.138 29.9719 148.085 30.1808 147.979C30.3929 147.873 30.5619 147.727 30.6879 147.542C30.8138 147.353 30.8768 147.134 30.8768 146.886V146.16C30.8072 146.196 30.7227 146.229 30.6232 146.259C30.5271 146.289 30.421 146.317 30.305 146.344C30.189 146.37 30.0697 146.393 29.9471 146.413C29.8245 146.433 29.7068 146.451 29.5941 146.468C29.3654 146.504 29.1699 146.561 29.0075 146.637C28.8484 146.713 28.7257 146.813 28.6396 146.935C28.5567 147.055 28.5153 147.197 28.5153 147.363C28.5153 147.615 28.6048 147.807 28.7837 147.94C28.966 148.072 29.1964 148.138 29.4748 148.138Z" fill="#101828"/>
<path d="M43.7741 142.327V149.6H42.8934V142.327H43.7741ZM46.2643 146.318V149.6H45.4262V144.145H46.2359V144.997H46.3069C46.4347 144.72 46.6289 144.498 46.8893 144.33C47.1497 144.159 47.4859 144.074 47.8978 144.074C48.2671 144.074 48.5903 144.15 48.8673 144.301C49.1443 144.45 49.3597 144.678 49.5136 144.983C49.6675 145.286 49.7444 145.67 49.7444 146.134V149.6H48.9063V146.191C48.9063 145.762 48.7951 145.428 48.5725 145.189C48.35 144.948 48.0446 144.827 47.6563 144.827C47.3888 144.827 47.1497 144.885 46.939 145.001C46.7307 145.117 46.5661 145.286 46.4454 145.509C46.3247 145.731 46.2643 146.001 46.2643 146.318ZM53.648 144.145V144.855H50.8213V144.145H53.648ZM51.6452 142.838H52.4832V148.037C52.4832 148.274 52.5175 148.451 52.5862 148.57C52.6572 148.686 52.7472 148.764 52.8561 148.804C52.9674 148.842 53.0845 148.861 53.2077 148.861C53.3 148.861 53.3757 148.856 53.4349 148.847C53.4941 148.835 53.5415 148.825 53.577 148.818L53.7474 149.571C53.6906 149.593 53.6113 149.614 53.5095 149.635C53.4077 149.659 53.2787 149.671 53.1224 149.671C52.8857 149.671 52.6537 149.62 52.4264 149.518C52.2015 149.416 52.0145 149.261 51.8653 149.053C51.7185 148.844 51.6452 148.582 51.6452 148.264V142.838ZM57.137 149.713C56.6114 149.713 56.1581 149.597 55.7769 149.365C55.3981 149.131 55.1057 148.804 54.8998 148.385C54.6962 147.964 54.5944 147.474 54.5944 146.915C54.5944 146.356 54.6962 145.864 54.8998 145.438C55.1057 145.009 55.3922 144.675 55.7591 144.436C56.1285 144.195 56.5593 144.074 57.0518 144.074C57.3358 144.074 57.6164 144.121 57.8934 144.216C58.1704 144.311 58.4225 144.465 58.6498 144.678C58.877 144.888 59.0582 145.168 59.1931 145.516C59.328 145.864 59.3955 146.292 59.3955 146.801V147.156H55.191V146.432H58.5432C58.5432 146.124 58.4817 145.85 58.3586 145.608C58.2378 145.367 58.065 145.176 57.8401 145.036C57.6176 144.897 57.3548 144.827 57.0518 144.827C56.718 144.827 56.4291 144.91 56.1853 145.075C55.9438 145.239 55.758 145.452 55.6278 145.715C55.4975 145.977 55.4324 146.259 55.4324 146.56V147.043C55.4324 147.455 55.5035 147.804 55.6455 148.09C55.7899 148.374 55.99 148.591 56.2456 148.74C56.5013 148.887 56.7984 148.96 57.137 148.96C57.3572 148.96 57.556 148.93 57.7336 148.868C57.9135 148.804 58.0686 148.709 58.1988 148.584C58.329 148.456 58.4296 148.298 58.5006 148.108L59.3103 148.335C59.2251 148.61 59.0818 148.852 58.8806 149.06C58.6794 149.266 58.4308 149.427 58.1349 149.543C57.8389 149.656 57.5063 149.713 57.137 149.713ZM60.6704 149.6V144.145H61.48V144.969H61.5368C61.6363 144.699 61.8162 144.48 62.0766 144.312C62.337 144.144 62.6306 144.06 62.9573 144.06C63.0189 144.06 63.0958 144.061 63.1881 144.063C63.2805 144.066 63.3503 144.069 63.3976 144.074V144.926C63.3692 144.919 63.3041 144.909 63.2023 144.894C63.1029 144.878 62.9975 144.869 62.8863 144.869C62.6211 144.869 62.3844 144.925 62.176 145.036C61.9701 145.145 61.8067 145.297 61.686 145.491C61.5676 145.683 61.5084 145.902 61.5084 146.148V149.6H60.6704ZM67.3172 149.6V142.327H69.8598C70.3664 142.327 70.7843 142.414 71.1134 142.59C71.4424 142.762 71.6875 142.996 71.8485 143.289C72.0094 143.58 72.0899 143.904 72.0899 144.259C72.0899 144.571 72.0343 144.829 71.923 145.033C71.8141 145.236 71.6697 145.397 71.4898 145.516C71.3122 145.634 71.1193 145.722 70.911 145.779V145.85C71.1335 145.864 71.3572 145.942 71.5821 146.084C71.807 146.226 71.9952 146.43 72.1468 146.695C72.2983 146.96 72.374 147.284 72.374 147.668C72.374 148.032 72.2912 148.36 72.1254 148.651C71.9597 148.943 71.6981 149.173 71.3406 149.344C70.9832 149.514 70.518 149.6 69.945 149.6H67.3172ZM68.1979 148.818H69.945C70.5203 148.818 70.9287 148.707 71.1702 148.485C71.414 148.26 71.536 147.987 71.536 147.668C71.536 147.422 71.4732 147.194 71.3477 146.986C71.2223 146.775 71.0435 146.607 70.8115 146.482C70.5795 146.354 70.3049 146.29 69.9877 146.29H68.1979V148.818ZM68.1979 145.523H69.8314C70.0966 145.523 70.3357 145.471 70.5487 145.367C70.7642 145.262 70.9346 145.116 71.0601 144.926C71.1879 144.737 71.2519 144.514 71.2519 144.259C71.2519 143.939 71.1406 143.668 70.9181 143.445C70.6955 143.221 70.3428 143.108 69.8598 143.108H68.1979V145.523ZM75.9234 149.713C75.431 149.713 74.9989 149.596 74.6272 149.362C74.2579 149.127 73.9691 148.799 73.7607 148.378C73.5548 147.957 73.4518 147.464 73.4518 146.901C73.4518 146.333 73.5548 145.837 73.7607 145.413C73.9691 144.989 74.2579 144.66 74.6272 144.426C74.9989 144.191 75.431 144.074 75.9234 144.074C76.4158 144.074 76.8467 144.191 77.216 144.426C77.5877 144.66 77.8765 144.989 78.0825 145.413C78.2908 145.837 78.395 146.333 78.395 146.901C78.395 147.464 78.2908 147.957 78.0825 148.378C77.8765 148.799 77.5877 149.127 77.216 149.362C76.8467 149.596 76.4158 149.713 75.9234 149.713ZM75.9234 148.96C76.2974 148.96 76.6052 148.865 76.8467 148.673C77.0882 148.481 77.2669 148.229 77.3829 147.916C77.4989 147.604 77.5569 147.265 77.5569 146.901C77.5569 146.536 77.4989 146.196 77.3829 145.882C77.2669 145.567 77.0882 145.312 76.8467 145.118C76.6052 144.924 76.2974 144.827 75.9234 144.827C75.5493 144.827 75.2416 144.924 75.0001 145.118C74.7586 145.312 74.5799 145.567 74.4639 145.882C74.3479 146.196 74.2899 146.536 74.2899 146.901C74.2899 147.265 74.3479 147.604 74.4639 147.916C74.5799 148.229 74.7586 148.481 75.0001 148.673C75.2416 148.865 75.5493 148.96 75.9234 148.96ZM80.5123 142.327V149.6H79.6743V142.327H80.5123ZM84.107 149.713C83.6524 149.713 83.2512 149.598 82.9031 149.369C82.5551 149.137 82.2829 148.81 82.0864 148.389C81.8899 147.965 81.7916 147.464 81.7916 146.887C81.7916 146.314 81.8899 145.816 82.0864 145.395C82.2829 144.974 82.5563 144.648 82.9067 144.419C83.2571 144.189 83.6619 144.074 84.1212 144.074C84.4763 144.074 84.7568 144.133 84.9628 144.252C85.1711 144.368 85.3298 144.5 85.4387 144.649C85.5499 144.796 85.6363 144.917 85.6979 145.012H85.7689V142.327H86.607V149.6H85.7973V148.762H85.6979C85.6363 148.861 85.5487 148.986 85.4351 149.138C85.3215 149.287 85.1593 149.421 84.9486 149.539C84.7379 149.655 84.4574 149.713 84.107 149.713ZM84.2206 148.96C84.5568 148.96 84.8409 148.873 85.0729 148.698C85.3049 148.52 85.4813 148.275 85.602 147.963C85.7227 147.648 85.7831 147.284 85.7831 146.872C85.7831 146.465 85.7239 146.109 85.6056 145.803C85.4872 145.496 85.312 145.257 85.08 145.086C84.848 144.913 84.5615 144.827 84.2206 144.827C83.8655 144.827 83.5696 144.918 83.3328 145.1C83.0985 145.28 82.9221 145.525 82.8037 145.835C82.6877 146.143 82.6297 146.489 82.6297 146.872C82.6297 147.261 82.6889 147.613 82.8073 147.931C82.928 148.245 83.1056 148.496 83.3399 148.683C83.5767 148.868 83.8702 148.96 84.2206 148.96Z" fill="#9CA3AF"/>
<path d="M15 165.5C15 164.119 16.1193 163 17.5 163H83.2625C84.6432 163 85.7625 164.119 85.7625 165.5C85.7625 166.881 84.6432 168 83.2625 168H17.5C16.1193 168 15 166.881 15 165.5Z" fill="#6366F1"/>
<path d="M91.7627 165.5C91.7627 164.119 92.882 163 94.2627 163H160.038C161.418 163 162.538 164.119 162.538 165.5C162.538 166.881 161.418 168 160.038 168H94.2627C92.882 168 91.7627 166.881 91.7627 165.5Z" fill="#A5B4FC"/>
<path d="M168.537 165.5C168.537 164.119 169.656 163 171.037 163H208.5C209.88 163 211 164.119 211 165.5C211 166.881 209.88 168 208.5 168H171.037C169.656 168 168.537 166.881 168.537 165.5Z" fill="#E5E7EB"/>
</g>
<defs>
<filter id="filter0_d_87_5685" x="73" y="0" width="80" height="80" filterUnits="userSpaceOnUse" color-interpolation-filters="sRGB">
<feFlood flood-opacity="0" result="BackgroundImageFix"/>
<feColorMatrix in="SourceAlpha" type="matrix" values="0 0 0 0 0 0 0 0 0 0 0 0 0 0 0 0 0 0 127 0" result="hardAlpha"/>
<feOffset dy="2"/>
<feGaussianBlur stdDeviation="4"/>
<feComposite in2="hardAlpha" operator="out"/>
<feColorMatrix type="matrix" values="0 0 0 0 0.109804 0 0 0 0 0.223529 0 0 0 0 0.556863 0 0 0 0.08 0"/>
<feBlend mode="normal" in2="BackgroundImageFix" result="effect1_dropShadow_87_5685"/>
<feBlend mode="normal" in="SourceGraphic" in2="effect1_dropShadow_87_5685" result="shape"/>
</filter>
<filter id="filter1_dd_87_5685" x="24" y="80" width="34" height="34" filterUnits="userSpaceOnUse" color-interpolation-filters="sRGB">
<feFlood flood-opacity="0" result="BackgroundImageFix"/>
<feColorMatrix in="SourceAlpha" type="matrix" values="0 0 0 0 0 0 0 0 0 0 0 0 0 0 0 0 0 0 127 0" result="hardAlpha"/>
<feMorphology radius="1" operator="erode" in="SourceAlpha" result="effect1_dropShadow_87_5685"/>
<feOffset dy="1"/>
<feGaussianBlur stdDeviation="1"/>
<feComposite in2="hardAlpha" operator="out"/>
<feColorMatrix type="matrix" values="0 0 0 0 0 0 0 0 0 0 0 0 0 0 0 0 0 0 0.1 0"/>
<feBlend mode="normal" in2="BackgroundImageFix" result="effect1_dropShadow_87_5685"/>
<feColorMatrix in="SourceAlpha" type="matrix" values="0 0 0 0 0 0 0 0 0 0 0 0 0 0 0 0 0 0 127 0" result="hardAlpha"/>
<feOffset dy="1"/>
<feGaussianBlur stdDeviation="1.5"/>
<feComposite in2="hardAlpha" operator="out"/>
<feColorMatrix type="matrix" values="0 0 0 0 0 0 0 0 0 0 0 0 0 0 0 0 0 0 0.1 0"/>
<feBlend mode="normal" in2="effect1_dropShadow_87_5685" result="effect2_dropShadow_87_5685"/>
<feBlend mode="normal" in="SourceGraphic" in2="effect2_dropShadow_87_5685" result="shape"/>
</filter>
<filter id="filter2_dd_87_5685" x="60" y="80" width="34" height="34" filterUnits="userSpaceOnUse" color-interpolation-filters="sRGB">
<feFlood flood-opacity="0" result="BackgroundImageFix"/>
<feColorMatrix in="SourceAlpha" type="matrix" values="0 0 0 0 0 0 0 0 0 0 0 0 0 0 0 0 0 0 127 0" result="hardAlpha"/>
<feMorphology radius="1" operator="erode" in="SourceAlpha" result="effect1_dropShadow_87_5685"/>
<feOffset dy="1"/>
<feGaussianBlur stdDeviation="1"/>
<feComposite in2="hardAlpha" operator="out"/>
<feColorMatrix type="matrix" values="0 0 0 0 0 0 0 0 0 0 0 0 0 0 0 0 0 0 0.1 0"/>
<feBlend mode="normal" in2="BackgroundImageFix" result="effect1_dropShadow_87_5685"/>
<feColorMatrix in="SourceAlpha" type="matrix" values="0 0 0 0 0 0 0 0 0 0 0 0 0 0 0 0 0 0 127 0" result="hardAlpha"/>
<feOffset dy="1"/>
<feGaussianBlur stdDeviation="1.5"/>
<feComposite in2="hardAlpha" operator="out"/>
<feColorMatrix type="matrix" values="0 0 0 0 0 0 0 0 0 0 0 0 0 0 0 0 0 0 0.1 0"/>
<feBlend mode="normal" in2="effect1_dropShadow_87_5685" result="effect2_dropShadow_87_5685"/>
<feBlend mode="normal" in="SourceGraphic" in2="effect2_dropShadow_87_5685" result="shape"/>
</filter>
<filter id="filter3_dd_87_5685" x="96" y="80" width="34" height="34" filterUnits="userSpaceOnUse" color-interpolation-filters="sRGB">
<feFlood flood-opacity="0" result="BackgroundImageFix"/>
<feColorMatrix in="SourceAlpha" type="matrix" values="0 0 0 0 0 0 0 0 0 0 0 0 0 0 0 0 0 0 127 0" result="hardAlpha"/>
<feMorphology radius="1" operator="erode" in="SourceAlpha" result="effect1_dropShadow_87_5685"/>
<feOffset dy="1"/>
<feGaussianBlur stdDeviation="1"/>
<feComposite in2="hardAlpha" operator="out"/>
<feColorMatrix type="matrix" values="0 0 0 0 0 0 0 0 0 0 0 0 0 0 0 0 0 0 0.1 0"/>
<feBlend mode="normal" in2="BackgroundImageFix" result="effect1_dropShadow_87_5685"/>
<feColorMatrix in="SourceAlpha" type="matrix" values="0 0 0 0 0 0 0 0 0 0 0 0 0 0 0 0 0 0 127 0" result="hardAlpha"/>
<feOffset dy="1"/>
<feGaussianBlur stdDeviation="1.5"/>
<feComposite in2="hardAlpha" operator="out"/>
<feColorMatrix type="matrix" values="0 0 0 0 0 0 0 0 0 0 0 0 0 0 0 0 0 0 0.1 0"/>
<feBlend mode="normal" in2="effect1_dropShadow_87_5685" result="effect2_dropShadow_87_5685"/>
<feBlend mode="normal" in="SourceGraphic" in2="effect2_dropShadow_87_5685" result="shape"/>
</filter>
<filter id="filter4_dd_87_5685" x="132" y="80" width="34" height="34" filterUnits="userSpaceOnUse" color-interpolation-filters="sRGB">
<feFlood flood-opacity="0" result="BackgroundImageFix"/>
<feColorMatrix in="SourceAlpha" type="matrix" values="0 0 0 0 0 0 0 0 0 0 0 0 0 0 0 0 0 0 127 0" result="hardAlpha"/>
<feMorphology radius="1" operator="erode" in="SourceAlpha" result="effect1_dropShadow_87_5685"/>
<feOffset dy="1"/>
<feGaussianBlur stdDeviation="1"/>
<feComposite in2="hardAlpha" operator="out"/>
<feColorMatrix type="matrix" values="0 0 0 0 0 0 0 0 0 0 0 0 0 0 0 0 0 0 0.1 0"/>
<feBlend mode="normal" in2="BackgroundImageFix" result="effect1_dropShadow_87_5685"/>
<feColorMatrix in="SourceAlpha" type="matrix" values="0 0 0 0 0 0 0 0 0 0 0 0 0 0 0 0 0 0 127 0" result="hardAlpha"/>
<feOffset dy="1"/>
<feGaussianBlur stdDeviation="1.5"/>
<feComposite in2="hardAlpha" operator="out"/>
<feColorMatrix type="matrix" values="0 0 0 0 0 0 0 0 0 0 0 0 0 0 0 0 0 0 0.1 0"/>
<feBlend mode="normal" in2="effect1_dropShadow_87_5685" result="effect2_dropShadow_87_5685"/>
<feBlend mode="normal" in="SourceGraphic" in2="effect2_dropShadow_87_5685" result="shape"/>
</filter>
<filter id="filter5_dd_87_5685" x="168" y="80" width="34" height="34" filterUnits="userSpaceOnUse" color-interpolation-filters="sRGB">
<feFlood flood-opacity="0" result="BackgroundImageFix"/>
<feColorMatrix in="SourceAlpha" type="matrix" values="0 0 0 0 0 0 0 0 0 0 0 0 0 0 0 0 0 0 127 0" result="hardAlpha"/>
<feMorphology radius="1" operator="erode" in="SourceAlpha" result="effect1_dropShadow_87_5685"/>
<feOffset dy="1"/>
<feGaussianBlur stdDeviation="1"/>
<feComposite in2="hardAlpha" operator="out"/>
<feColorMatrix type="matrix" values="0 0 0 0 0 0 0 0 0 0 0 0 0 0 0 0 0 0 0.1 0"/>
<feBlend mode="normal" in2="BackgroundImageFix" result="effect1_dropShadow_87_5685"/>
<feColorMatrix in="SourceAlpha" type="matrix" values="0 0 0 0 0 0 0 0 0 0 0 0 0 0 0 0 0 0 127 0" result="hardAlpha"/>
<feOffset dy="1"/>
<feGaussianBlur stdDeviation="1.5"/>
<feComposite in2="hardAlpha" operator="out"/>
<feColorMatrix type="matrix" values="0 0 0 0 0 0 0 0 0 0 0 0 0 0 0 0 0 0 0.1 0"/>
<feBlend mode="normal" in2="effect1_dropShadow_87_5685" result="effect2_dropShadow_87_5685"/>
<feBlend mode="normal" in="SourceGraphic" in2="effect2_dropShadow_87_5685" result="shape"/>
</filter>
<filter id="filter6_d_87_5685" x="0" y="120" width="226" height="64" filterUnits="userSpaceOnUse" color-interpolation-filters="sRGB">
<feFlood flood-opacity="0" result="BackgroundImageFix"/>
<feColorMatrix in="SourceAlpha" type="matrix" values="0 0 0 0 0 0 0 0 0 0 0 0 0 0 0 0 0 0 127 0" result="hardAlpha"/>
<feOffset dy="1"/>
<feGaussianBlur stdDeviation="1.5"/>
<feComposite in2="hardAlpha" operator="out"/>
<feColorMatrix type="matrix" values="0 0 0 0 0.109804 0 0 0 0 0.223529 0 0 0 0 0.556863 0 0 0 0.05 0"/>
<feBlend mode="normal" in2="BackgroundImageFix" result="effect1_dropShadow_87_5685"/>
<feBlend mode="normal" in="SourceGraphic" in2="effect1_dropShadow_87_5685" result="shape"/>
</filter>
</defs>
</svg>
