<svg width="1285" height="445" viewBox="0 0 1285 445" fill="none" xmlns="http://www.w3.org/2000/svg">
<path d="M285.735 115.349C286.544 115.314 287.355 115.288 288.166 115.274C297.95 115.099 307.917 116.731 317.341 119.178C339.496 124.931 359.433 135.265 375.999 150.794C392.803 166.546 403.876 185.17 410.768 206.756C412.248 211.395 414.337 217.637 414.293 222.513C414.286 223.174 414.225 223.9 413.663 224.34C411.748 225.835 386.131 225.217 381.899 225.148C380.494 216.699 377.777 208.508 373.844 200.854C361.773 177.244 341.178 160.424 315.645 152.058C303.978 148.14 295.352 147.16 283.002 147.706C266.853 148.356 251.638 155.257 240.735 166.876C227.044 181.467 222.22 200.118 225.45 219.543C225.747 221.328 226.379 223.277 226.464 225.061C223.497 226.454 200.136 225.13 196.146 224.85C194.812 221.723 193.795 214.63 193.524 211.087C191.842 189.072 200.321 165.021 215.148 148.361C234.071 127.099 257.348 117.354 285.735 115.349Z" fill="#1EC4FF"/>
<path d="M126.235 225.07C131.74 224.812 142.927 224.485 148.273 226.038C149.704 226.454 151.532 235.576 152.412 238.048C161.434 262.888 180.184 283.245 204.567 294.67C223.166 303.499 246.883 306.687 266.668 300.086C290.177 292.245 307.09 268.391 307.488 244.361C307.584 238.571 306.825 231.467 304.805 226.044C306.834 226.009 308.964 225.615 310.984 225.617C318.508 225.633 326.122 225.101 333.63 225.493C336.498 225.642 337.344 229.409 337.901 231.671C340.259 241.243 339.078 251.356 337.572 260.968C334.613 275.597 328.08 289.319 318.524 300.971C303.955 318.669 281.484 331.14 258.275 333.568C224.384 337.41 190.33 327.809 163.791 306.928C137.786 286.8 121.186 257.335 117.729 225.163C120.619 225.206 123.345 225.146 126.235 225.07Z" fill="#61ECFF"/>
<path d="M281.85 153.601C299.337 152.914 320.076 158.475 334.981 167.292C354.975 179.201 369.256 198.39 374.655 220.597C381.858 250.001 374.74 284.811 358.583 310.399C340.472 339.337 311.123 359.925 277.198 367.488C273.016 368.335 268.798 368.996 264.554 369.468C264.594 358.99 264.078 349.855 265.579 339.435C269.23 338.091 273.005 337.361 276.658 336.135C309.156 325.213 336.329 299.347 343.006 265.83C346.502 249.865 346.728 231.298 339.076 216.432C333.285 205.181 322.144 195.998 310.543 190.646C299.086 185.36 285.467 184.234 272.984 186.298C271.126 186.605 268.103 187.157 266.462 187.951C266.795 183.208 265.57 160.149 267.186 157.825C269.332 154.74 278.265 154.044 281.85 153.601Z" fill="#1082FF"/>
<path d="M266.345 79.3433C266.583 79.406 266.417 79.3479 266.776 79.6414C266.915 87.2385 266.743 94.9256 266.803 102.526C266.823 105.135 266.549 108.391 266.656 110.829C264.98 111.107 263.328 111.53 261.689 111.967C235.066 119.115 212.473 136.313 198.923 159.745C188.139 178.202 182.916 203.513 188.792 224.195C192.794 238.642 202.572 250.924 215.94 258.298C230.996 266.493 248.388 268.008 264.914 263.462C265.047 269.748 265.534 276.005 265.437 282.328C265.376 286.302 265.747 289.001 264.896 292.941C257.726 297.425 244.979 297.325 236.695 296.452C192.064 293.562 155.852 254.398 154.129 211.715C153.488 195.83 156.309 177.827 162.328 163.141C173.85 135.024 196.357 108.141 223.727 93.4415C235.409 87.1679 253.042 80.0277 266.345 79.3433Z" fill="#1082FF"/>
<path d="M671.841 126V162.25H616.841V301H579.341V162.25H524.341V126H671.841ZM875.62 229L980.87 126H1035.37L956.37 204C959.703 211.667 963.87 219 968.87 226C973.87 233 979.62 239.25 986.12 244.75C992.62 250.25 999.953 254.75 1008.12 258.25C1016.29 261.75 1025.29 263.833 1035.12 264.5V301C1021.12 301 1008.62 299.083 997.62 295.25C986.787 291.417 977.12 286.333 968.62 280C960.12 273.5 952.62 266.083 946.12 257.75C939.787 249.25 934.12 240.333 929.12 231L913.12 246.75V301H875.62V229ZM913.12 168L875.62 202V126H913.12V168ZM1092.71 213.5C1092.71 224 1094.05 232.667 1096.71 239.5C1099.38 246.333 1102.96 251.833 1107.46 256C1112.13 260 1117.46 262.833 1123.46 264.5C1129.63 266 1136.05 266.75 1142.71 266.75C1149.55 266.75 1156.05 266 1162.21 264.5C1168.38 262.833 1173.71 260 1178.21 256C1182.88 251.833 1186.55 246.333 1189.21 239.5C1192.05 232.667 1193.46 224 1193.46 213.5C1193.46 209.333 1193.3 205.833 1192.96 203C1192.8 200.167 1192.3 197.25 1191.46 194.25L1213.71 199.75L1227.46 178C1230.46 188.333 1231.96 200.167 1231.96 213.5C1231.96 230.333 1229.63 244.5 1224.96 256C1220.46 267.333 1214.13 276.583 1205.96 283.75C1197.96 290.75 1188.46 295.833 1177.46 299C1166.63 302 1154.88 303.5 1142.21 303.5C1130.05 303.5 1118.63 301.833 1107.96 298.5C1097.3 295.167 1087.96 289.917 1079.96 282.75C1071.96 275.417 1065.63 266.083 1060.96 254.75C1056.46 243.417 1054.21 229.667 1054.21 213.5C1054.21 197.333 1056.46 183.583 1060.96 172.25C1065.63 160.917 1071.96 151.667 1079.96 144.5C1087.96 137.167 1097.3 131.833 1107.96 128.5C1118.63 125.167 1130.05 123.5 1142.21 123.5C1158.71 123.5 1172.63 126 1183.96 131C1195.3 136 1204.38 142.5 1211.21 150.5L1203.21 173.5L1179.71 172.5C1177.88 171.333 1175.96 170 1173.96 168.5C1171.96 167 1169.55 165.667 1166.71 164.5C1164.05 163.333 1160.71 162.333 1156.71 161.5C1152.88 160.667 1148.21 160.25 1142.71 160.25C1136.05 160.25 1129.63 161.083 1123.46 162.75C1117.46 164.417 1112.13 167.25 1107.46 171.25C1102.96 175.25 1099.38 180.667 1096.71 187.5C1094.05 194.333 1092.71 203 1092.71 213.5Z" fill="black"/>
<path d="M707.938 162.25L695.688 126H843.188V162.25H707.938ZM843.188 195.25V231.5H695.688V195.25H843.188ZM843.188 264.75V301H695.688V264.75H843.188Z" fill="#1082FF"/>
</svg>
