<svg width="201" height="169" viewBox="0 0 201 169" fill="none" xmlns="http://www.w3.org/2000/svg">
<g filter="url(#filter0_dd_77_602)">
<path d="M12 31C12 23.268 18.268 17 26 17H153C160.732 17 167 23.268 167 31V103C167 110.732 160.732 117 153 117H26C18.268 117 12 110.732 12 103V31Z" fill="white" shape-rendering="crispEdges"/>
<path d="M24 38.375C24 33.1973 28.1973 29 33.375 29C38.5527 29 42.75 33.1973 42.75 38.375V47.625C42.75 52.8027 38.5527 57 33.375 57C28.1973 57 24 52.8027 24 47.625V38.375Z" fill="#DBEAFE"/>
<g clip-path="url(#clip0_77_602)">
<path d="M33.375 38V41M33.375 45V48M30.375 43H28.375M38.375 43H36.375M35.625 39.75L34.375 41M32.375 45L31.125 46.25M36.625 40.75L35.375 42M31.375 44L30.125 45.25" stroke="#3B82F6" stroke-linecap="round"/>
</g>
<g clip-path="url(#clip1_77_602)">
<path d="M54.75 43H74.75" stroke="#DDDDDD" stroke-width="1.5" stroke-dasharray="3 2"/>
</g>
<path d="M80.1377 38.3687C80.1377 33.1945 84.3322 29 89.5064 29C94.6807 29 98.8752 33.1945 98.8752 38.3687V47.6313C98.8752 52.8055 94.6807 57 89.5064 57C84.3322 57 80.1377 52.8055 80.1377 47.6313V38.3687Z" fill="#DCFCE7"/>
<g clip-path="url(#clip2_77_602)">
<path d="M94.5 42.5399V42.9999C94.4994 44.0781 94.1503 45.1273 93.5047 45.9908C92.8591 46.8544 91.9516 47.4862 90.9177 47.7919C89.8837 48.0976 88.7786 48.0609 87.7672 47.6872C86.7558 47.3136 85.8923 46.623 85.3055 45.7185C84.7186 44.8139 84.4399 43.744 84.5108 42.6681C84.5818 41.5922 84.9986 40.5681 85.6991 39.7485C86.3997 38.9288 87.3464 38.3576 88.3981 38.12C89.4498 37.8824 90.5501 37.9911 91.535 38.4299" stroke="#10B981" stroke-linecap="round"/>
<path d="M94.5 39L89.5 44.005L88 42.505" stroke="#10B981" stroke-linecap="round" stroke-linejoin="round"/>
</g>
<g clip-path="url(#clip3_77_602)">
<path d="M110.875 43H130.875" stroke="#DDDDDD" stroke-width="1.5" stroke-dasharray="3 2"/>
</g>
<path d="M136.263 38.3687C136.263 33.1945 140.457 29 145.631 29C150.806 29 155 33.1945 155 38.3687V47.6313C155 52.8055 150.806 57 145.631 57C140.457 57 136.263 52.8055 136.263 47.6313V38.3687Z" fill="#F3E8FF"/>
<path d="M144.125 38.5H141.625C141.349 38.5 141.125 38.7239 141.125 39V41.5C141.125 41.7761 141.349 42 141.625 42H144.125C144.401 42 144.625 41.7761 144.625 41.5V39C144.625 38.7239 144.401 38.5 144.125 38.5Z" stroke="#7C3AED"/>
<path d="M149.625 38.5H147.125C146.849 38.5 146.625 38.7239 146.625 39V41.5C146.625 41.7761 146.849 42 147.125 42H149.625C149.901 42 150.125 41.7761 150.125 41.5V39C150.125 38.7239 149.901 38.5 149.625 38.5Z" stroke="#7C3AED"/>
<path d="M144.125 44H141.625C141.349 44 141.125 44.2239 141.125 44.5V47C141.125 47.2761 141.349 47.5 141.625 47.5H144.125C144.401 47.5 144.625 47.2761 144.625 47V44.5C144.625 44.2239 144.401 44 144.125 44Z" stroke="#7C3AED"/>
<path d="M149.625 44H147.125C146.849 44 146.625 44.2239 146.625 44.5V47C146.625 47.2761 146.849 47.5 147.125 47.5H149.625C149.901 47.5 150.125 47.2761 150.125 47V44.5C150.125 44.2239 149.901 44 149.625 44Z" stroke="#7C3AED"/>
<path d="M24 73C24 71.8954 24.8954 71 26 71H46C47.1046 71 48 71.8954 48 73C48 74.1046 47.1046 75 46 75H26C24.8954 75 24 74.1046 24 73Z" fill="#E5E7EB"/>
<g clip-path="url(#clip4_77_602)">
<path d="M56 73C56 70.7909 57.7909 69 60 69H151C153.209 69 155 70.7909 155 73C155 75.2091 153.209 77 151 77H60C57.7909 77 56 75.2091 56 73Z" fill="#F3F4F6"/>
<path d="M56 73C56 70.7909 57.7909 69 60 69H141.1C143.309 69 145.1 70.7909 145.1 73C145.1 75.2091 143.309 77 141.1 77H60C57.7909 77 56 75.2091 56 73Z" fill="url(#paint0_linear_77_602)"/>
</g>
<path d="M24 87C24 85.8954 24.8954 85 26 85H46C47.1046 85 48 85.8954 48 87C48 88.1046 47.1046 89 46 89H26C24.8954 89 24 88.1046 24 87Z" fill="#E5E7EB"/>
<g clip-path="url(#clip5_77_602)">
<path d="M56 87C56 84.7909 57.7909 83 60 83H151C153.209 83 155 84.7909 155 87C155 89.2091 153.209 91 151 91H60C57.7909 91 56 89.2091 56 87Z" fill="#F3F4F6"/>
<path d="M56 87C56 84.7909 57.7909 83 60 83H121.3C123.509 83 125.3 84.7909 125.3 87C125.3 89.2091 123.509 91 121.3 91H60C57.7909 91 56 89.2091 56 87Z" fill="url(#paint1_linear_77_602)"/>
</g>
<path d="M24 101C24 99.8954 24.8954 99 26 99H46C47.1046 99 48 99.8954 48 101C48 102.105 47.1046 103 46 103H26C24.8954 103 24 102.105 24 101Z" fill="#E5E7EB"/>
<g clip-path="url(#clip6_77_602)">
<path d="M56 101C56 98.7909 57.7909 97 60 97H151C153.209 97 155 98.7909 155 101C155 103.209 153.209 105 151 105H60C57.7909 105 56 103.209 56 101Z" fill="#F3F4F6"/>
<path d="M56 101C56 98.7909 57.7909 97 60 97H106.45C108.659 97 110.45 98.7909 110.45 101C110.45 103.209 108.659 105 106.45 105H60C57.7909 105 56 103.209 56 101Z" fill="url(#paint2_linear_77_602)"/>
</g>
</g>
<g filter="url(#filter1_dd_77_602)">
<path d="M128.088 11C128.088 5.47715 132.565 1 138.088 1H186C191.523 1 196 5.47715 196 11V19.5C196 25.0228 191.523 29.5 186 29.5H138.088C132.565 29.5 128.088 25.0228 128.088 19.5V11Z" fill="white" shape-rendering="crispEdges"/>
<path d="M142.959 11.4907C143.397 11.4907 143.815 11.5623 144.213 11.7056C144.612 11.8462 144.967 12.0715 145.28 12.3813C145.592 12.6886 145.838 13.0936 146.018 13.5962C146.198 14.0988 146.288 14.7121 146.288 15.436C146.29 16.1027 146.212 16.7004 146.053 17.229C145.894 17.755 145.667 18.203 145.37 18.5728C145.075 18.9425 144.721 19.2251 144.307 19.4204C143.893 19.6131 143.431 19.7095 142.92 19.7095C142.358 19.7095 141.862 19.6014 141.432 19.3853C141.005 19.1665 140.663 18.8722 140.405 18.5024C140.15 18.1326 139.997 17.7186 139.948 17.2603H141.85C141.91 17.5259 142.036 17.7264 142.229 17.8618C142.422 17.9946 142.652 18.061 142.92 18.061C143.41 18.061 143.776 17.8488 144.018 17.4243C144.26 16.9998 144.381 16.423 144.381 15.6938H144.334C144.222 15.9334 144.064 16.1392 143.858 16.311C143.655 16.4829 143.419 16.6144 143.151 16.7056C142.883 16.7967 142.6 16.8423 142.303 16.8423C141.824 16.8423 141.401 16.7329 141.034 16.5142C140.669 16.2954 140.383 15.9946 140.174 15.6118C139.969 15.229 139.864 14.7915 139.862 14.2993C139.859 13.7472 139.988 13.2603 140.249 12.8384C140.509 12.4139 140.872 12.0832 141.338 11.8462C141.805 11.6066 142.345 11.4881 142.959 11.4907ZM142.971 12.9751C142.732 12.9751 142.518 13.0311 142.331 13.1431C142.146 13.255 142 13.4061 141.893 13.5962C141.786 13.7863 141.734 13.9998 141.737 14.2368C141.739 14.4738 141.793 14.6873 141.897 14.8774C142.004 15.0675 142.148 15.2186 142.331 15.3306C142.515 15.4425 142.726 15.4985 142.963 15.4985C143.14 15.4985 143.305 15.466 143.456 15.4009C143.607 15.3358 143.738 15.2459 143.85 15.1313C143.962 15.0142 144.049 14.8787 144.112 14.7251C144.177 14.5715 144.208 14.4074 144.206 14.2329C144.203 14.0011 144.148 13.7902 144.042 13.6001C143.935 13.41 143.788 13.259 143.6 13.147C143.415 13.0324 143.206 12.9751 142.971 12.9751ZM150.474 19.7095C149.852 19.7095 149.296 19.6105 148.806 19.4126C148.319 19.2121 147.936 18.9412 147.658 18.6001C147.382 18.2563 147.244 17.8683 147.244 17.436C147.244 17.1053 147.323 16.8019 147.482 16.5259C147.641 16.2498 147.856 16.0207 148.126 15.8384C148.4 15.6535 148.705 15.535 149.041 15.4829V15.4204C148.6 15.3397 148.24 15.1353 147.958 14.8071C147.68 14.479 147.541 14.0949 147.541 13.6548C147.541 13.2381 147.667 12.867 147.919 12.5415C148.175 12.216 148.522 11.9595 148.962 11.772C149.405 11.5845 149.909 11.4907 150.474 11.4907C151.039 11.4907 151.542 11.5845 151.982 11.772C152.425 11.9595 152.772 12.216 153.025 12.5415C153.28 12.867 153.408 13.2381 153.408 13.6548C153.408 14.0975 153.266 14.4829 152.982 14.811C152.701 15.1366 152.343 15.3397 151.908 15.4204V15.4829C152.241 15.535 152.543 15.6535 152.814 15.8384C153.087 16.0207 153.304 16.2498 153.462 16.5259C153.624 16.8019 153.705 17.1053 153.705 17.436C153.705 17.8683 153.565 18.2563 153.287 18.6001C153.008 18.9412 152.625 19.2121 152.138 19.4126C151.654 19.6105 151.099 19.7095 150.474 19.7095ZM150.474 18.3384C150.711 18.3384 150.919 18.2941 151.099 18.2056C151.279 18.1144 151.419 17.9881 151.521 17.8267C151.625 17.6652 151.677 17.4829 151.677 17.2798C151.677 17.0715 151.625 16.8866 151.521 16.7251C151.417 16.5636 151.274 16.4373 151.091 16.3462C150.912 16.2524 150.706 16.2056 150.474 16.2056C150.245 16.2056 150.039 16.2524 149.857 16.3462C149.675 16.4373 149.531 16.5636 149.427 16.7251C149.323 16.8866 149.271 17.0715 149.271 17.2798C149.271 17.4829 149.322 17.6652 149.423 17.8267C149.528 17.9855 149.669 18.1105 149.849 18.2017C150.031 18.2928 150.24 18.3384 150.474 18.3384ZM150.474 14.8423C150.677 14.8423 150.857 14.8006 151.013 14.7173C151.172 14.634 151.296 14.5181 151.384 14.3696C151.475 14.2212 151.521 14.0532 151.521 13.8657C151.521 13.6782 151.475 13.5129 151.384 13.3696C151.296 13.2264 151.173 13.1144 151.017 13.0337C150.861 12.9504 150.68 12.9087 150.474 12.9087C150.271 12.9087 150.09 12.9504 149.931 13.0337C149.772 13.1144 149.649 13.2264 149.56 13.3696C149.472 13.5129 149.427 13.6782 149.427 13.8657C149.427 14.0532 149.472 14.2212 149.56 14.3696C149.651 14.5155 149.776 14.6313 149.935 14.7173C150.094 14.8006 150.274 14.8423 150.474 14.8423ZM159.263 18.1001V17.6782C159.263 17.3501 159.333 17.0467 159.474 16.7681C159.617 16.4894 159.824 16.2655 160.095 16.0962C160.366 15.9269 160.697 15.8423 161.087 15.8423C161.486 15.8423 161.82 15.9269 162.091 16.0962C162.365 16.2629 162.57 16.4855 162.708 16.7642C162.849 17.0402 162.919 17.3449 162.919 17.6782V18.1001C162.919 18.4282 162.849 18.7316 162.708 19.0103C162.568 19.2889 162.361 19.5129 162.087 19.6821C161.814 19.8514 161.481 19.936 161.087 19.936C160.692 19.936 160.358 19.8514 160.087 19.6821C159.817 19.5129 159.611 19.2889 159.47 19.0103C159.332 18.7316 159.263 18.4282 159.263 18.1001ZM160.509 17.6782V18.1001C160.509 18.2668 160.55 18.4269 160.63 18.5806C160.714 18.7342 160.866 18.811 161.087 18.811C161.314 18.811 161.466 18.7368 161.544 18.5884C161.623 18.4373 161.662 18.2746 161.662 18.1001V17.6782C161.662 17.5037 161.624 17.3397 161.548 17.186C161.475 17.0298 161.322 16.9517 161.087 16.9517C160.869 16.9517 160.718 17.0298 160.634 17.186C160.551 17.3397 160.509 17.5037 160.509 17.6782ZM155.115 13.522V13.1001C155.115 12.7668 155.186 12.4621 155.33 12.186C155.475 11.9074 155.684 11.6847 155.955 11.5181C156.225 11.3488 156.554 11.2642 156.939 11.2642C157.337 11.2642 157.672 11.3488 157.943 11.5181C158.216 11.6847 158.423 11.9074 158.564 12.186C158.705 12.4621 158.775 12.7668 158.775 13.1001V13.522C158.775 13.8553 158.703 14.16 158.56 14.436C158.419 14.7121 158.212 14.9321 157.939 15.0962C157.666 15.2603 157.332 15.3423 156.939 15.3423C156.546 15.3423 156.212 15.259 155.939 15.0923C155.668 14.9256 155.462 14.7043 155.322 14.4282C155.184 14.1522 155.115 13.8501 155.115 13.522ZM156.373 13.1001V13.522C156.373 13.6965 156.413 13.8592 156.494 14.0103C156.577 14.1587 156.725 14.2329 156.939 14.2329C157.168 14.2329 157.32 14.1587 157.396 14.0103C157.474 13.8592 157.513 13.6965 157.513 13.522V13.1001C157.513 12.9256 157.477 12.7616 157.404 12.6079C157.331 12.4517 157.176 12.3735 156.939 12.3735C156.72 12.3735 156.57 12.453 156.49 12.6118C156.412 12.7707 156.373 12.9334 156.373 13.1001ZM155.705 19.6001L161.205 11.6001H162.271L156.771 19.6001H155.705Z" fill="#101828"/>
<path d="M170 15.25C170 10.8317 173.582 7.25 178 7.25C182.418 7.25 186 10.8317 186 15.25C186 19.6683 182.418 23.25 178 23.25C173.582 23.25 170 19.6683 170 15.25Z" fill="#00C950"/>
<g clip-path="url(#clip7_77_602)">
<path d="M175.333 15.2501L177.333 17.2501L180.666 13.9167" stroke="white" stroke-width="1.33333" stroke-linecap="round" stroke-linejoin="round"/>
</g>
</g>
<g filter="url(#filter2_dd_77_602)">
<path d="M20 121C20 115.477 24.4772 111 30 111H46C51.5228 111 56 115.477 56 121V137C56 142.523 51.5228 147 46 147H30C24.4772 147 20 142.523 20 137V121Z" fill="#4F39F6" shape-rendering="crispEdges"/>
<g clip-path="url(#clip8_77_602)">
<path d="M38 131C38.5304 131 39.0391 130.789 39.4142 130.414C39.7893 130.039 40 129.53 40 129C40 128.47 39.7893 127.961 39.4142 127.586C39.0391 127.211 38.5304 127 38 127C37.4696 127 36.9609 127.211 36.5858 127.586C36.2107 127.961 36 128.47 36 129C36 129.53 36.2107 130.039 36.5858 130.414C36.9609 130.789 37.4696 131 38 131Z" stroke="white" stroke-width="1.33333"/>
<path d="M42.9337 131C42.8449 131.201 42.8184 131.424 42.8577 131.64C42.8969 131.857 43 132.056 43.1537 132.213L43.1937 132.253C43.3176 132.377 43.416 132.524 43.4831 132.686C43.5502 132.848 43.5847 133.022 43.5847 133.197C43.5847 133.372 43.5502 133.545 43.4831 133.707C43.416 133.869 43.3176 134.016 43.1937 134.14C43.0698 134.264 42.9228 134.362 42.7609 134.429C42.599 134.497 42.4255 134.531 42.2503 134.531C42.0751 134.531 41.9016 134.497 41.7397 134.429C41.5779 134.362 41.4308 134.264 41.307 134.14L41.267 134.1C41.1099 133.946 40.9103 133.843 40.6941 133.804C40.4778 133.765 40.2547 133.791 40.0537 133.88C39.8565 133.965 39.6883 134.105 39.5699 134.284C39.4514 134.463 39.3878 134.672 39.387 134.887V135C39.387 135.354 39.2465 135.693 38.9965 135.943C38.7464 136.193 38.4073 136.333 38.0537 136.333C37.7 136.333 37.3609 136.193 37.1109 135.943C36.8608 135.693 36.7203 135.354 36.7203 135V134.94C36.7152 134.719 36.6437 134.505 36.5153 134.326C36.3869 134.146 36.2075 134.01 36.0003 133.933C35.7992 133.845 35.5762 133.818 35.3599 133.857C35.1437 133.897 34.9441 134 34.787 134.153L34.747 134.193C34.4968 134.444 34.1575 134.584 33.8037 134.584C33.4498 134.584 33.1105 134.444 32.8603 134.193C32.6101 133.943 32.4696 133.604 32.4696 133.25C32.4696 132.896 32.6101 132.557 32.8603 132.307L32.9003 132.267C33.0652 132.105 33.1752 131.896 33.2146 131.669C33.2541 131.442 33.2211 131.208 33.1203 131C33.0358 130.803 32.8955 130.635 32.7166 130.516C32.5378 130.398 32.3282 130.334 32.1137 130.333H32.0003C31.6467 130.333 31.3076 130.193 31.0575 129.943C30.8075 129.693 30.667 129.354 30.667 129C30.667 128.646 30.8075 128.307 31.0575 128.057C31.3076 127.807 31.6467 127.667 32.0003 127.667H32.0603C32.2748 127.666 32.4844 127.602 32.6633 127.484C32.8422 127.365 32.9825 127.197 33.067 127C33.1557 126.799 33.1822 126.576 33.143 126.36C33.1038 126.143 33.0007 125.944 32.847 125.787L32.807 125.747C32.5568 125.497 32.4163 125.157 32.4163 124.803C32.4163 124.45 32.5568 124.11 32.807 123.86C33.0572 123.61 33.3965 123.469 33.7503 123.469C34.1041 123.469 34.4435 123.61 34.6937 123.86L34.7337 123.9C34.895 124.065 35.1042 124.175 35.3315 124.214C35.5588 124.254 35.7928 124.221 36.0003 124.12C36.1975 124.036 36.3657 123.895 36.4841 123.716C36.6026 123.538 36.6661 123.328 36.667 123.113V123C36.667 122.646 36.8075 122.307 37.0575 122.057C37.3076 121.807 37.6467 121.667 38.0003 121.667C38.3539 121.667 38.6931 121.807 38.9431 122.057C39.1932 122.307 39.3337 122.646 39.3337 123V123.06C39.3345 123.275 39.3981 123.484 39.5165 123.663C39.635 123.842 39.8031 123.982 40.0003 124.067C40.2014 124.155 40.4245 124.182 40.6407 124.143C40.857 124.104 41.0565 124 41.2137 123.847L41.2537 123.807C41.5038 123.557 41.8432 123.416 42.197 123.416C42.3722 123.416 42.5457 123.451 42.7075 123.518C42.8694 123.585 43.0164 123.683 43.1403 123.807C43.2642 123.931 43.3625 124.078 43.4295 124.24C43.4966 124.401 43.5311 124.575 43.5311 124.75C43.5311 124.925 43.4966 125.099 43.4295 125.261C43.3625 125.422 43.2642 125.57 43.1403 125.693L43.1003 125.733C42.9441 125.901 42.8441 126.113 42.8143 126.34C42.7844 126.567 42.8261 126.798 42.9337 127C43.0182 127.197 43.1585 127.365 43.3373 127.484C43.5162 127.602 43.7258 127.666 43.9403 127.667H44.0003C44.3539 127.667 44.6931 127.807 44.9431 128.057C45.1932 128.307 45.3337 128.646 45.3337 129C45.3337 129.354 45.1932 129.693 44.9431 129.943C44.6931 130.193 44.3539 130.333 44.0003 130.333H43.9403C43.7258 130.334 43.5162 130.398 43.3373 130.516C43.1585 130.635 43.0182 130.803 42.9337 131Z" stroke="white"/>
</g>
</g>
<defs>
<filter id="filter0_dd_77_602" x="0" y="15" width="179" height="124" filterUnits="userSpaceOnUse" color-interpolation-filters="sRGB">
<feFlood flood-opacity="0" result="BackgroundImageFix"/>
<feColorMatrix in="SourceAlpha" type="matrix" values="0 0 0 0 0 0 0 0 0 0 0 0 0 0 0 0 0 0 127 0" result="hardAlpha"/>
<feMorphology radius="4" operator="erode" in="SourceAlpha" result="effect1_dropShadow_77_602"/>
<feOffset dy="4"/>
<feGaussianBlur stdDeviation="3"/>
<feComposite in2="hardAlpha" operator="out"/>
<feColorMatrix type="matrix" values="0 0 0 0 0.109804 0 0 0 0 0.223529 0 0 0 0 0.556863 0 0 0 0.05 0"/>
<feBlend mode="normal" in2="BackgroundImageFix" result="effect1_dropShadow_77_602"/>
<feColorMatrix in="SourceAlpha" type="matrix" values="0 0 0 0 0 0 0 0 0 0 0 0 0 0 0 0 0 0 127 0" result="hardAlpha"/>
<feMorphology radius="3" operator="erode" in="SourceAlpha" result="effect2_dropShadow_77_602"/>
<feOffset dy="10"/>
<feGaussianBlur stdDeviation="7.5"/>
<feComposite in2="hardAlpha" operator="out"/>
<feColorMatrix type="matrix" values="0 0 0 0 0.109804 0 0 0 0 0.223529 0 0 0 0 0.556863 0 0 0 0.05 0"/>
<feBlend mode="normal" in2="effect1_dropShadow_77_602" result="effect2_dropShadow_77_602"/>
<feBlend mode="normal" in="SourceGraphic" in2="effect2_dropShadow_77_602" result="shape"/>
</filter>
<filter id="filter1_dd_77_602" x="123.088" y="0" width="77.9121" height="38.5" filterUnits="userSpaceOnUse" color-interpolation-filters="sRGB">
<feFlood flood-opacity="0" result="BackgroundImageFix"/>
<feColorMatrix in="SourceAlpha" type="matrix" values="0 0 0 0 0 0 0 0 0 0 0 0 0 0 0 0 0 0 127 0" result="hardAlpha"/>
<feMorphology radius="2" operator="erode" in="SourceAlpha" result="effect1_dropShadow_77_602"/>
<feOffset dy="2"/>
<feGaussianBlur stdDeviation="2"/>
<feComposite in2="hardAlpha" operator="out"/>
<feColorMatrix type="matrix" values="0 0 0 0 0 0 0 0 0 0 0 0 0 0 0 0 0 0 0.1 0"/>
<feBlend mode="normal" in2="BackgroundImageFix" result="effect1_dropShadow_77_602"/>
<feColorMatrix in="SourceAlpha" type="matrix" values="0 0 0 0 0 0 0 0 0 0 0 0 0 0 0 0 0 0 127 0" result="hardAlpha"/>
<feMorphology radius="1" operator="erode" in="SourceAlpha" result="effect2_dropShadow_77_602"/>
<feOffset dy="4"/>
<feGaussianBlur stdDeviation="3"/>
<feComposite in2="hardAlpha" operator="out"/>
<feColorMatrix type="matrix" values="0 0 0 0 0 0 0 0 0 0 0 0 0 0 0 0 0 0 0.1 0"/>
<feBlend mode="normal" in2="effect1_dropShadow_77_602" result="effect2_dropShadow_77_602"/>
<feBlend mode="normal" in="SourceGraphic" in2="effect2_dropShadow_77_602" result="shape"/>
</filter>
<filter id="filter2_dd_77_602" x="8" y="109" width="60" height="60" filterUnits="userSpaceOnUse" color-interpolation-filters="sRGB">
<feFlood flood-opacity="0" result="BackgroundImageFix"/>
<feColorMatrix in="SourceAlpha" type="matrix" values="0 0 0 0 0 0 0 0 0 0 0 0 0 0 0 0 0 0 127 0" result="hardAlpha"/>
<feMorphology radius="4" operator="erode" in="SourceAlpha" result="effect1_dropShadow_77_602"/>
<feOffset dy="4"/>
<feGaussianBlur stdDeviation="3"/>
<feComposite in2="hardAlpha" operator="out"/>
<feColorMatrix type="matrix" values="0 0 0 0 0.380392 0 0 0 0 0.372549 0 0 0 0 1 0 0 0 0.3 0"/>
<feBlend mode="normal" in2="BackgroundImageFix" result="effect1_dropShadow_77_602"/>
<feColorMatrix in="SourceAlpha" type="matrix" values="0 0 0 0 0 0 0 0 0 0 0 0 0 0 0 0 0 0 127 0" result="hardAlpha"/>
<feMorphology radius="3" operator="erode" in="SourceAlpha" result="effect2_dropShadow_77_602"/>
<feOffset dy="10"/>
<feGaussianBlur stdDeviation="7.5"/>
<feComposite in2="hardAlpha" operator="out"/>
<feColorMatrix type="matrix" values="0 0 0 0 0.380392 0 0 0 0 0.372549 0 0 0 0 1 0 0 0 0.3 0"/>
<feBlend mode="normal" in2="effect1_dropShadow_77_602" result="effect2_dropShadow_77_602"/>
<feBlend mode="normal" in="SourceGraphic" in2="effect2_dropShadow_77_602" result="shape"/>
</filter>
<linearGradient id="paint0_linear_77_602" x1="56" y1="73" x2="145.1" y2="73" gradientUnits="userSpaceOnUse">
<stop stop-color="#51A2FF"/>
<stop offset="1" stop-color="#155DFC"/>
</linearGradient>
<linearGradient id="paint1_linear_77_602" x1="56" y1="87" x2="125.3" y2="87" gradientUnits="userSpaceOnUse">
<stop stop-color="#05DF72"/>
<stop offset="1" stop-color="#00C950"/>
</linearGradient>
<linearGradient id="paint2_linear_77_602" x1="56" y1="101" x2="110.45" y2="101" gradientUnits="userSpaceOnUse">
<stop stop-color="#C27AFF"/>
<stop offset="1" stop-color="#AD46FF"/>
</linearGradient>
<clipPath id="clip0_77_602">
<rect width="12" height="12" fill="white" transform="translate(27.375 37)"/>
</clipPath>
<clipPath id="clip1_77_602">
<rect width="13.3875" height="2" fill="white" transform="translate(54.75 42)"/>
</clipPath>
<clipPath id="clip2_77_602">
<rect width="12" height="12" fill="white" transform="translate(83.5 37)"/>
</clipPath>
<clipPath id="clip3_77_602">
<rect width="13.3875" height="2" fill="white" transform="translate(110.875 42)"/>
</clipPath>
<clipPath id="clip4_77_602">
<path d="M56 73C56 70.7909 57.7909 69 60 69H151C153.209 69 155 70.7909 155 73C155 75.2091 153.209 77 151 77H60C57.7909 77 56 75.2091 56 73Z" fill="white"/>
</clipPath>
<clipPath id="clip5_77_602">
<path d="M56 87C56 84.7909 57.7909 83 60 83H151C153.209 83 155 84.7909 155 87C155 89.2091 153.209 91 151 91H60C57.7909 91 56 89.2091 56 87Z" fill="white"/>
</clipPath>
<clipPath id="clip6_77_602">
<path d="M56 101C56 98.7909 57.7909 97 60 97H151C153.209 97 155 98.7909 155 101C155 103.209 153.209 105 151 105H60C57.7909 105 56 103.209 56 101Z" fill="white"/>
</clipPath>
<clipPath id="clip7_77_602">
<rect width="8" height="8" fill="white" transform="translate(174 11.25)"/>
</clipPath>
<clipPath id="clip8_77_602">
<rect width="16" height="16" fill="white" transform="translate(30 121)"/>
</clipPath>
</defs>
</svg>
